<svg class="main-svg" xmlns="http://www.w3.org/2000/svg" xmlns:xlink="http://www.w3.org/1999/xlink" width="1800" height="900" style="" viewBox="0 0 900 450"><rect x="0" y="0" width="900" height="450" style="fill: rgb(255, 255, 255); fill-opacity: 1;"/><defs id="defs-70bcd5"><g class="clips"><clipPath id="clip70bcd5xyplot" class="plotclip"><rect width="787" height="316"/></clipPath><clipPath class="axesclip" id="clip70bcd5x"><rect x="63" y="0" width="787" height="450"/></clipPath><clipPath class="axesclip" id="clip70bcd5y"><rect x="0" y="80" width="900" height="316"/></clipPath><clipPath class="axesclip" id="clip70bcd5xy"><rect x="63" y="80" width="787" height="316"/></clipPath></g><g class="gradients"/><g class="patterns"/></defs><g class="bglayer"/><g class="layer-below"><g class="imagelayer"/><g class="shapelayer"/></g><g class="cartesianlayer"><g class="subplot xy"><g class="layer-subplot"><g class="shapelayer"/><g class="imagelayer"/></g><g class="gridlayer"><g class="x"><path class="xgrid crisp" transform="translate(201.72,0)" d="M0,80v316" style="stroke: rgb(238, 238, 238); stroke-opacity: 1; stroke-width: 1px;"/><path class="xgrid crisp" transform="translate(313.40999999999997,0)" d="M0,80v316" style="stroke: rgb(238, 238, 238); stroke-opacity: 1; stroke-width: 1px;"/><path class="xgrid crisp" transform="translate(425.09,0)" d="M0,80v316" style="stroke: rgb(238, 238, 238); stroke-opacity: 1; stroke-width: 1px;"/><path class="xgrid crisp" transform="translate(536.78,0)" d="M0,80v316" style="stroke: rgb(238, 238, 238); stroke-opacity: 1; stroke-width: 1px;"/><path class="xgrid crisp" transform="translate(648.47,0)" d="M0,80v316" style="stroke: rgb(238, 238, 238); stroke-opacity: 1; stroke-width: 1px;"/><path class="xgrid crisp" transform="translate(760.15,0)" d="M0,80v316" style="stroke: rgb(238, 238, 238); stroke-opacity: 1; stroke-width: 1px;"/></g><g class="y"><path class="ygrid crisp" transform="translate(0,330.3)" d="M63,0h787" style="stroke: rgb(238, 238, 238); stroke-opacity: 1; stroke-width: 1px;"/><path class="ygrid crisp" transform="translate(0,281)" d="M63,0h787" style="stroke: rgb(238, 238, 238); stroke-opacity: 1; stroke-width: 1px;"/><path class="ygrid crisp" transform="translate(0,231.69)" d="M63,0h787" style="stroke: rgb(238, 238, 238); stroke-opacity: 1; stroke-width: 1px;"/><path class="ygrid crisp" transform="translate(0,182.38)" d="M63,0h787" style="stroke: rgb(238, 238, 238); stroke-opacity: 1; stroke-width: 1px;"/><path class="ygrid crisp" transform="translate(0,133.07)" d="M63,0h787" style="stroke: rgb(238, 238, 238); stroke-opacity: 1; stroke-width: 1px;"/><path class="ygrid crisp" transform="translate(0,83.76)" d="M63,0h787" style="stroke: rgb(238, 238, 238); stroke-opacity: 1; stroke-width: 1px;"/></g></g><g class="zerolinelayer"><path class="xzl zl crisp" transform="translate(90.03,0)" d="M0,80v316" style="stroke: rgb(68, 68, 68); stroke-opacity: 1; stroke-width: 1px;"/><path class="yzl zl crisp" transform="translate(0,379.61)" d="M63,0h787" style="stroke: rgb(68, 68, 68); stroke-opacity: 1; stroke-width: 1px;"/></g><path class="xlines-below"/><path class="ylines-below"/><g class="overlines-below"/><g class="xaxislayer-below"/><g class="yaxislayer-below"/><g class="overaxes-below"/><g class="plot" transform="translate(63,80)" clip-path="url(#clip70bcd5xyplot)"><g class="scatterlayer mlayer"><g class="trace scatter trace33ea52" style="stroke-miterlimit: 2; opacity: 0.7;"><g class="fills"/><g class="errorbars"/><g class="lines"/><g class="points"><path class="point" transform="translate(228.5,200.15)" d="M9,0A9,9 0 1,1 0,-9A9,9 0 0,1 9,0Z" style="opacity: 1; stroke-width: 2px; fill: rgb(0, 84, 164); fill-opacity: 1; stroke: rgb(211, 211, 211); stroke-opacity: 1;"/><path class="point" transform="translate(86.05,271.14)" d="M9,0A9,9 0 1,1 0,-9A9,9 0 0,1 9,0Z" style="opacity: 1; stroke-width: 2px; fill: rgb(0, 84, 164); fill-opacity: 1; stroke: rgb(211, 211, 211); stroke-opacity: 1;"/><path class="point" transform="translate(58.49,280.39)" d="M9,0A9,9 0 1,1 0,-9A9,9 0 0,1 9,0Z" style="opacity: 1; stroke-width: 2px; fill: rgb(0, 84, 164); fill-opacity: 1; stroke: rgb(211, 211, 211); stroke-opacity: 1;"/><path class="point" transform="translate(270.43,181.51)" d="M9,0A9,9 0 1,1 0,-9A9,9 0 0,1 9,0Z" style="opacity: 1; stroke-width: 2px; fill: rgb(0, 84, 164); fill-opacity: 1; stroke: rgb(211, 211, 211); stroke-opacity: 1;"/><path class="point" transform="translate(736.4,27.05)" d="M9,0A9,9 0 1,1 0,-9A9,9 0 0,1 9,0Z" style="opacity: 1; stroke-width: 2px; fill: rgb(0, 84, 164); fill-opacity: 1; stroke: rgb(211, 211, 211); stroke-opacity: 1;"/><path class="point" transform="translate(50.6,288.95)" d="M9,0A9,9 0 1,1 0,-9A9,9 0 0,1 9,0Z" style="opacity: 1; stroke-width: 2px; fill: rgb(0, 84, 164); fill-opacity: 1; stroke: rgb(211, 211, 211); stroke-opacity: 1;"/><path class="point" transform="translate(333.82,175.58)" d="M9,0A9,9 0 1,1 0,-9A9,9 0 0,1 9,0Z" style="opacity: 1; stroke-width: 2px; fill: rgb(0, 84, 164); fill-opacity: 1; stroke: rgb(211, 211, 211); stroke-opacity: 1;"/><path class="point" transform="translate(110.56,253.9)" d="M9,0A9,9 0 1,1 0,-9A9,9 0 0,1 9,0Z" style="opacity: 1; stroke-width: 2px; fill: rgb(0, 84, 164); fill-opacity: 1; stroke: rgb(211, 211, 211); stroke-opacity: 1;"/><path class="point" transform="translate(80.81,272.42)" d="M9,0A9,9 0 1,1 0,-9A9,9 0 0,1 9,0Z" style="opacity: 1; stroke-width: 2px; fill: rgb(0, 84, 164); fill-opacity: 1; stroke: rgb(211, 211, 211); stroke-opacity: 1;"/><path class="point" transform="translate(78.68,266.41)" d="M9,0A9,9 0 1,1 0,-9A9,9 0 0,1 9,0Z" style="opacity: 1; stroke-width: 2px; fill: rgb(0, 84, 164); fill-opacity: 1; stroke: rgb(211, 211, 211); stroke-opacity: 1;"/><path class="point" transform="translate(174.92,214.75)" d="M9,0A9,9 0 1,1 0,-9A9,9 0 0,1 9,0Z" style="opacity: 1; stroke-width: 2px; fill: rgb(0, 84, 164); fill-opacity: 1; stroke: rgb(211, 211, 211); stroke-opacity: 1;"/></g><g class="text"/></g></g></g><g class="overplot"/><path class="xlines-above crisp" d="M0,0" style="fill: none;"/><path class="ylines-above crisp" d="M0,0" style="fill: none;"/><g class="overlines-above"/><g class="xaxislayer-above"><g class="xtick"><text text-anchor="middle" x="0" y="414" transform="translate(90.03,0)" style="font-family: 'Arial Narrow'; font-size: 16px; fill: rgb(68, 68, 68); fill-opacity: 1; white-space: pre; opacity: 1;">0</text></g><g class="xtick"><text text-anchor="middle" x="0" y="414" style="font-family: 'Arial Narrow'; font-size: 16px; fill: rgb(68, 68, 68); fill-opacity: 1; white-space: pre; opacity: 1;" transform="translate(201.72,0)">0.2M</text></g><g class="xtick"><text text-anchor="middle" x="0" y="414" style="font-family: 'Arial Narrow'; font-size: 16px; fill: rgb(68, 68, 68); fill-opacity: 1; white-space: pre; opacity: 1;" transform="translate(313.40999999999997,0)">0.4M</text></g><g class="xtick"><text text-anchor="middle" x="0" y="414" style="font-family: 'Arial Narrow'; font-size: 16px; fill: rgb(68, 68, 68); fill-opacity: 1; white-space: pre; opacity: 1;" transform="translate(425.09,0)">0.6M</text></g><g class="xtick"><text text-anchor="middle" x="0" y="414" style="font-family: 'Arial Narrow'; font-size: 16px; fill: rgb(68, 68, 68); fill-opacity: 1; white-space: pre; opacity: 1;" transform="translate(536.78,0)">0.8M</text></g><g class="xtick"><text text-anchor="middle" x="0" y="414" style="font-family: 'Arial Narrow'; font-size: 16px; fill: rgb(68, 68, 68); fill-opacity: 1; white-space: pre; opacity: 1;" transform="translate(648.47,0)">1M</text></g><g class="xtick"><text text-anchor="middle" x="0" y="414" style="font-family: 'Arial Narrow'; font-size: 16px; fill: rgb(68, 68, 68); fill-opacity: 1; white-space: pre; opacity: 1;" transform="translate(760.15,0)">1.2M</text></g></g><g class="yaxislayer-above"><g class="ytick"><text text-anchor="end" x="61" y="5.6" transform="translate(0,379.61)" style="font-family: 'Arial Narrow'; font-size: 16px; fill: rgb(68, 68, 68); fill-opacity: 1; white-space: pre; opacity: 1;">0</text></g><g class="ytick"><text text-anchor="end" x="61" y="5.6" style="font-family: 'Arial Narrow'; font-size: 16px; fill: rgb(68, 68, 68); fill-opacity: 1; white-space: pre; opacity: 1;" transform="translate(0,330.3)">0.5M</text></g><g class="ytick"><text text-anchor="end" x="61" y="5.6" style="font-family: 'Arial Narrow'; font-size: 16px; fill: rgb(68, 68, 68); fill-opacity: 1; white-space: pre; opacity: 1;" transform="translate(0,281)">1M</text></g><g class="ytick"><text text-anchor="end" x="61" y="5.6" style="font-family: 'Arial Narrow'; font-size: 16px; fill: rgb(68, 68, 68); fill-opacity: 1; white-space: pre; opacity: 1;" transform="translate(0,231.69)">1.5M</text></g><g class="ytick"><text text-anchor="end" x="61" y="5.6" style="font-family: 'Arial Narrow'; font-size: 16px; fill: rgb(68, 68, 68); fill-opacity: 1; white-space: pre; opacity: 1;" transform="translate(0,182.38)">2M</text></g><g class="ytick"><text text-anchor="end" x="61" y="5.6" style="font-family: 'Arial Narrow'; font-size: 16px; fill: rgb(68, 68, 68); fill-opacity: 1; white-space: pre; opacity: 1;" transform="translate(0,133.07)">2.5M</text></g><g class="ytick"><text text-anchor="end" x="61" y="5.6" style="font-family: 'Arial Narrow'; font-size: 16px; fill: rgb(68, 68, 68); fill-opacity: 1; white-space: pre; opacity: 1;" transform="translate(0,83.76)">3M</text></g></g><g class="overaxes-above"/></g></g><g class="polarlayer"/><g class="smithlayer"/><g class="ternarylayer"/><g class="geolayer"/><g class="funnelarealayer"/><g class="pielayer"/><g class="iciclelayer"/><g class="treemaplayer"/><g class="sunburstlayer"/><g class="glimages"/><defs id="topdefs-70bcd5"><g class="clips"/></defs><g class="layer-above"><g class="imagelayer"/><g class="shapelayer"/></g><g class="infolayer"><g class="g-gtitle"/><g class="g-xtitle" transform="translate(0,-20)"><text class="xtitle" x="456.5" y="466" text-anchor="middle" style="font-family: 'Arial Narrow'; font-size: 20px; fill: rgb(68, 68, 68); opacity: 1; font-weight: normal; white-space: pre;">Total population</text></g><g class="g-ytitle" transform="translate(5.5,0)"><text class="ytitle" transform="rotate(-90,13,238)" x="13" y="238" text-anchor="middle" style="font-family: 'Arial Narrow'; font-size: 20px; fill: rgb(68, 68, 68); opacity: 1; font-weight: normal; white-space: pre;">Metric tons CO​<tspan style="font-size:70%" dy="0.3em">2</tspan><tspan dy="-0.21em">​</tspan>e</text></g><g class="annotation" data-index="0" style="opacity: 1;"><g class="annotation-text-g" transform="rotate(0,257,66.21999999999998)"><g class="cursor-pointer" transform="translate(63,55)"><rect class="bg" x="0.5" y="0.5" width="387" height="22" style="stroke-width: 1px; stroke: rgb(0, 0, 0); stroke-opacity: 0; fill: rgb(0, 0, 0); fill-opacity: 0;"/><text class="annotation-text" text-anchor="start" x="2" y="17" style="font-family: 'Arial Narrow'; font-size: 16px; fill: rgb(68, 68, 68); fill-opacity: 1; white-space: pre;">2021 ACS 5-year population estimates. Strong positive correlation</text></g></g></g></g></svg>