<svg class="main-svg" xmlns="http://www.w3.org/2000/svg" xmlns:xlink="http://www.w3.org/1999/xlink" width="1800" height="900" style="" viewBox="0 0 900 450"><rect x="0" y="0" width="900" height="450" style="fill: rgb(255, 255, 255); fill-opacity: 1;"/><defs id="defs-bbddb2"><g class="clips"><clipPath id="clipbbddb2xyplot" class="plotclip"><rect width="694" height="242"/></clipPath><clipPath class="axesclip" id="clipbbddb2x"><rect x="68" y="0" width="694" height="450"/></clipPath><clipPath class="axesclip" id="clipbbddb2y"><rect x="0" y="80" width="900" height="242"/></clipPath><clipPath class="axesclip" id="clipbbddb2xy"><rect x="68" y="80" width="694" height="242"/></clipPath></g><g class="gradients"/><g class="patterns"/></defs><g class="bglayer"/><g class="layer-below"><g class="imagelayer"/><g class="shapelayer"/></g><g class="cartesianlayer"><g class="subplot xy"><g class="layer-subplot"><g class="shapelayer"/><g class="imagelayer"/></g><g class="gridlayer"><g class="x"/><g class="y"><path class="ygrid crisp" transform="translate(0,276.02)" d="M68,0h694" style="stroke: rgb(238, 238, 238); stroke-opacity: 1; stroke-width: 1px;"/><path class="ygrid crisp" transform="translate(0,230.04)" d="M68,0h694" style="stroke: rgb(238, 238, 238); stroke-opacity: 1; stroke-width: 1px;"/><path class="ygrid crisp" transform="translate(0,184.06)" d="M68,0h694" style="stroke: rgb(238, 238, 238); stroke-opacity: 1; stroke-width: 1px;"/><path class="ygrid crisp" transform="translate(0,138.07999999999998)" d="M68,0h694" style="stroke: rgb(238, 238, 238); stroke-opacity: 1; stroke-width: 1px;"/><path class="ygrid crisp" transform="translate(0,92.1)" d="M68,0h694" style="stroke: rgb(238, 238, 238); stroke-opacity: 1; stroke-width: 1px;"/></g></g><g class="zerolinelayer"><path class="yzl zl crisp" transform="translate(0,322)" d="M68,0h694" style="stroke: rgb(68, 68, 68); stroke-opacity: 1; stroke-width: 1px;"/></g><path class="xlines-below"/><path class="ylines-below"/><g class="overlines-below"/><g class="xaxislayer-below"/><g class="yaxislayer-below"/><g class="overaxes-below"/><g class="plot" transform="translate(68,80)" clip-path="url(#clipbbddb2xyplot)"><g class="barlayer mlayer"><g class="trace bars" shape-rendering="crispEdges" style="opacity: 1;"><g class="points"><g class="point"><path d="M2.57,242V189.12H23.13V242Z" style="vector-effect: non-scaling-stroke; opacity: 1; stroke-width: 0px; fill: rgb(102, 194, 165); fill-opacity: 1;"/></g><g class="point"><path d="M28.27,242V207.52H48.84V242Z" style="vector-effect: non-scaling-stroke; opacity: 1; stroke-width: 0px; fill: rgb(102, 194, 165); fill-opacity: 1;"/></g><g class="point"><path d="M53.98,242V216.71H74.54V242Z" style="vector-effect: non-scaling-stroke; opacity: 1; stroke-width: 0px; fill: rgb(102, 194, 165); fill-opacity: 1;"/></g><g class="point"><path d="M79.68,242V219.01H100.24V242Z" style="vector-effect: non-scaling-stroke; opacity: 1; stroke-width: 0px; fill: rgb(102, 194, 165); fill-opacity: 1;"/></g><g class="point"><path d="M105.39,242V219.01H125.95V242Z" style="vector-effect: non-scaling-stroke; opacity: 1; stroke-width: 0px; fill: rgb(102, 194, 165); fill-opacity: 1;"/></g><g class="point"><path d="M131.09,242V223.61H151.65V242Z" style="vector-effect: non-scaling-stroke; opacity: 1; stroke-width: 0px; fill: rgb(102, 194, 165); fill-opacity: 1;"/></g><g class="point"><path d="M156.79,242V225.91H177.36V242Z" style="vector-effect: non-scaling-stroke; opacity: 1; stroke-width: 0px; fill: rgb(102, 194, 165); fill-opacity: 1;"/></g><g class="point"><path d="M182.5,242V228.21H203.06V242Z" style="vector-effect: non-scaling-stroke; opacity: 1; stroke-width: 0px; fill: rgb(102, 194, 165); fill-opacity: 1;"/></g><g class="point"><path d="M208.2,242V232.8H228.76V242Z" style="vector-effect: non-scaling-stroke; opacity: 1; stroke-width: 0px; fill: rgb(102, 194, 165); fill-opacity: 1;"/></g><g class="point"><path d="M233.9,242V232.8H254.47V242Z" style="vector-effect: non-scaling-stroke; opacity: 1; stroke-width: 0px; fill: rgb(102, 194, 165); fill-opacity: 1;"/></g><g class="point"><path d="M259.61,242V235.1H280.17V242Z" style="vector-effect: non-scaling-stroke; opacity: 1; stroke-width: 0px; fill: rgb(102, 194, 165); fill-opacity: 1;"/></g><g class="point"><path d="M285.31,242V235.1H305.87V242Z" style="vector-effect: non-scaling-stroke; opacity: 1; stroke-width: 0px; fill: rgb(102, 194, 165); fill-opacity: 1;"/></g><g class="point"><path d="M311.01,242V235.1H331.58V242Z" style="vector-effect: non-scaling-stroke; opacity: 1; stroke-width: 0px; fill: rgb(102, 194, 165); fill-opacity: 1;"/></g><g class="point"><path d="M336.72,242V235.1H357.28V242Z" style="vector-effect: non-scaling-stroke; opacity: 1; stroke-width: 0px; fill: rgb(102, 194, 165); fill-opacity: 1;"/></g><g class="point"><path d="M362.42,242V235.1H382.99V242Z" style="vector-effect: non-scaling-stroke; opacity: 1; stroke-width: 0px; fill: rgb(102, 194, 165); fill-opacity: 1;"/></g><g class="point"><path d="M388.13,242V235.1H408.69V242Z" style="vector-effect: non-scaling-stroke; opacity: 1; stroke-width: 0px; fill: rgb(102, 194, 165); fill-opacity: 1;"/></g><g class="point"><path d="M413.83,242V237.4H434.39V242Z" style="vector-effect: non-scaling-stroke; opacity: 1; stroke-width: 0px; fill: rgb(102, 194, 165); fill-opacity: 1;"/></g><g class="point"><path d="M439.53,242V237.4H460.1V242Z" style="vector-effect: non-scaling-stroke; opacity: 1; stroke-width: 0px; fill: rgb(102, 194, 165); fill-opacity: 1;"/></g><g class="point"><path d="M465.24,242V237.4H485.8V242Z" style="vector-effect: non-scaling-stroke; opacity: 1; stroke-width: 0px; fill: rgb(102, 194, 165); fill-opacity: 1;"/></g><g class="point"><path d="M490.94,242V237.4H511.5V242Z" style="vector-effect: non-scaling-stroke; opacity: 1; stroke-width: 0px; fill: rgb(102, 194, 165); fill-opacity: 1;"/></g><g class="point"><path d="M516.64,242V237.4H537.21V242Z" style="vector-effect: non-scaling-stroke; opacity: 1; stroke-width: 0px; fill: rgb(102, 194, 165); fill-opacity: 1;"/></g><g class="point"><path d="M542.35,242V237.4H562.91V242Z" style="vector-effect: non-scaling-stroke; opacity: 1; stroke-width: 0px; fill: rgb(102, 194, 165); fill-opacity: 1;"/></g><g class="point"><path d="M568.05,242V239.7H588.61V242Z" style="vector-effect: non-scaling-stroke; opacity: 1; stroke-width: 0px; fill: rgb(102, 194, 165); fill-opacity: 1;"/></g><g class="point"><path d="M593.76,242V239.7H614.32V242Z" style="vector-effect: non-scaling-stroke; opacity: 1; stroke-width: 0px; fill: rgb(102, 194, 165); fill-opacity: 1;"/></g><g class="point"><path d="M619.46,242V239.7H640.02V242Z" style="vector-effect: non-scaling-stroke; opacity: 1; stroke-width: 0px; fill: rgb(102, 194, 165); fill-opacity: 1;"/></g><g class="point"><path d="M645.16,242V239.7H665.73V242Z" style="vector-effect: non-scaling-stroke; opacity: 1; stroke-width: 0px; fill: rgb(102, 194, 165); fill-opacity: 1;"/></g><g class="point"><path d="M670.87,242V239.7H691.43V242Z" style="vector-effect: non-scaling-stroke; opacity: 1; stroke-width: 0px; fill: rgb(102, 194, 165); fill-opacity: 1;"/></g></g></g><g class="trace bars" shape-rendering="crispEdges" style="opacity: 1;"><g class="points"><g class="point"><path d="M2.57,189.12V182.23H23.13V189.12Z" style="vector-effect: non-scaling-stroke; opacity: 1; stroke-width: 0px; fill: rgb(252, 141, 98); fill-opacity: 1;"/></g><g class="point"><path d="M28.27,207.52V198.32H48.84V207.52Z" style="vector-effect: non-scaling-stroke; opacity: 1; stroke-width: 0px; fill: rgb(252, 141, 98); fill-opacity: 1;"/></g><g class="point"><path d="M53.98,216.71V209.81H74.54V216.71Z" style="vector-effect: non-scaling-stroke; opacity: 1; stroke-width: 0px; fill: rgb(252, 141, 98); fill-opacity: 1;"/></g><g class="point"><path d="M79.68,219.01V207.52H100.24V219.01Z" style="vector-effect: non-scaling-stroke; opacity: 1; stroke-width: 0px; fill: rgb(252, 141, 98); fill-opacity: 1;"/></g><g class="point"><path d="M105.39,219.01V214.41H125.95V219.01Z" style="vector-effect: non-scaling-stroke; opacity: 1; stroke-width: 0px; fill: rgb(252, 141, 98); fill-opacity: 1;"/></g><g class="point"><path d="M131.09,223.61V214.41H151.65V223.61Z" style="vector-effect: non-scaling-stroke; opacity: 1; stroke-width: 0px; fill: rgb(252, 141, 98); fill-opacity: 1;"/></g><g class="point"><path d="M156.79,225.91V221.31H177.36V225.91Z" style="vector-effect: non-scaling-stroke; opacity: 1; stroke-width: 0px; fill: rgb(252, 141, 98); fill-opacity: 1;"/></g><g class="point"><path d="M182.5,228.21V219.01H203.06V228.21Z" style="vector-effect: non-scaling-stroke; opacity: 1; stroke-width: 0px; fill: rgb(252, 141, 98); fill-opacity: 1;"/></g><g class="point"><path d="M208.2,232.8V223.61H228.76V232.8Z" style="vector-effect: non-scaling-stroke; opacity: 1; stroke-width: 0px; fill: rgb(252, 141, 98); fill-opacity: 1;"/></g><g class="point"><path d="M233.9,232.8V223.61H254.47V232.8Z" style="vector-effect: non-scaling-stroke; opacity: 1; stroke-width: 0px; fill: rgb(252, 141, 98); fill-opacity: 1;"/></g><g class="point"><path d="M259.61,235.1V228.21H280.17V235.1Z" style="vector-effect: non-scaling-stroke; opacity: 1; stroke-width: 0px; fill: rgb(252, 141, 98); fill-opacity: 1;"/></g><g class="point"><path d="M285.31,235.1V223.61H305.87V235.1Z" style="vector-effect: non-scaling-stroke; opacity: 1; stroke-width: 0px; fill: rgb(252, 141, 98); fill-opacity: 1;"/></g><g class="point"><path d="M311.01,235.1V228.21H331.58V235.1Z" style="vector-effect: non-scaling-stroke; opacity: 1; stroke-width: 0px; fill: rgb(252, 141, 98); fill-opacity: 1;"/></g><g class="point"><path d="M336.72,235.1V225.91H357.28V235.1Z" style="vector-effect: non-scaling-stroke; opacity: 1; stroke-width: 0px; fill: rgb(252, 141, 98); fill-opacity: 1;"/></g><g class="point"><path d="M362.42,235.1V228.21H382.99V235.1Z" style="vector-effect: non-scaling-stroke; opacity: 1; stroke-width: 0px; fill: rgb(252, 141, 98); fill-opacity: 1;"/></g><g class="point"><path d="M388.13,235.1V228.21H408.69V235.1Z" style="vector-effect: non-scaling-stroke; opacity: 1; stroke-width: 0px; fill: rgb(252, 141, 98); fill-opacity: 1;"/></g><g class="point"><path d="M413.83,237.4V230.51H434.39V237.4Z" style="vector-effect: non-scaling-stroke; opacity: 1; stroke-width: 0px; fill: rgb(252, 141, 98); fill-opacity: 1;"/></g><g class="point"><path d="M439.53,237.4V230.51H460.1V237.4Z" style="vector-effect: non-scaling-stroke; opacity: 1; stroke-width: 0px; fill: rgb(252, 141, 98); fill-opacity: 1;"/></g><g class="point"><path d="M465.24,237.4V232.8H485.8V237.4Z" style="vector-effect: non-scaling-stroke; opacity: 1; stroke-width: 0px; fill: rgb(252, 141, 98); fill-opacity: 1;"/></g><g class="point"><path d="M490.94,237.4V232.8H511.5V237.4Z" style="vector-effect: non-scaling-stroke; opacity: 1; stroke-width: 0px; fill: rgb(252, 141, 98); fill-opacity: 1;"/></g><g class="point"><path d="M516.64,237.4V232.8H537.21V237.4Z" style="vector-effect: non-scaling-stroke; opacity: 1; stroke-width: 0px; fill: rgb(252, 141, 98); fill-opacity: 1;"/></g><g class="point"><path d="M542.35,237.4V232.8H562.91V237.4Z" style="vector-effect: non-scaling-stroke; opacity: 1; stroke-width: 0px; fill: rgb(252, 141, 98); fill-opacity: 1;"/></g><g class="point"><path d="M568.05,239.7V235.1H588.61V239.7Z" style="vector-effect: non-scaling-stroke; opacity: 1; stroke-width: 0px; fill: rgb(252, 141, 98); fill-opacity: 1;"/></g><g class="point"><path d="M593.76,239.7V232.8H614.32V239.7Z" style="vector-effect: non-scaling-stroke; opacity: 1; stroke-width: 0px; fill: rgb(252, 141, 98); fill-opacity: 1;"/></g><g class="point"><path d="M619.46,239.7V232.8H640.02V239.7Z" style="vector-effect: non-scaling-stroke; opacity: 1; stroke-width: 0px; fill: rgb(252, 141, 98); fill-opacity: 1;"/></g><g class="point"><path d="M645.16,239.7V237.4H665.73V239.7Z" style="vector-effect: non-scaling-stroke; opacity: 1; stroke-width: 0px; fill: rgb(252, 141, 98); fill-opacity: 1;"/></g><g class="point"><path d="M670.87,239.7V232.8H691.43V239.7Z" style="vector-effect: non-scaling-stroke; opacity: 1; stroke-width: 0px; fill: rgb(252, 141, 98); fill-opacity: 1;"/></g></g></g><g class="trace bars" shape-rendering="crispEdges" style="opacity: 1;"><g class="points"><g class="point"><path d="M2.57,182.23V12.1H23.13V182.23Z" style="vector-effect: non-scaling-stroke; opacity: 1; stroke-width: 0px; fill: rgb(141, 160, 203); fill-opacity: 1;"/></g><g class="point"><path d="M28.27,198.32V12.1H48.84V198.32Z" style="vector-effect: non-scaling-stroke; opacity: 1; stroke-width: 0px; fill: rgb(141, 160, 203); fill-opacity: 1;"/></g><g class="point"><path d="M53.98,209.81V12.1H74.54V209.81Z" style="vector-effect: non-scaling-stroke; opacity: 1; stroke-width: 0px; fill: rgb(141, 160, 203); fill-opacity: 1;"/></g><g class="point"><path d="M79.68,207.52V12.1H100.24V207.52Z" style="vector-effect: non-scaling-stroke; opacity: 1; stroke-width: 0px; fill: rgb(141, 160, 203); fill-opacity: 1;"/></g><g class="point"><path d="M105.39,214.41V12.1H125.95V214.41Z" style="vector-effect: non-scaling-stroke; opacity: 1; stroke-width: 0px; fill: rgb(141, 160, 203); fill-opacity: 1;"/></g><g class="point"><path d="M131.09,214.41V12.1H151.65V214.41Z" style="vector-effect: non-scaling-stroke; opacity: 1; stroke-width: 0px; fill: rgb(141, 160, 203); fill-opacity: 1;"/></g><g class="point"><path d="M156.79,221.31V12.1H177.36V221.31Z" style="vector-effect: non-scaling-stroke; opacity: 1; stroke-width: 0px; fill: rgb(141, 160, 203); fill-opacity: 1;"/></g><g class="point"><path d="M182.5,219.01V12.1H203.06V219.01Z" style="vector-effect: non-scaling-stroke; opacity: 1; stroke-width: 0px; fill: rgb(141, 160, 203); fill-opacity: 1;"/></g><g class="point"><path d="M208.2,223.61V12.1H228.76V223.61Z" style="vector-effect: non-scaling-stroke; opacity: 1; stroke-width: 0px; fill: rgb(141, 160, 203); fill-opacity: 1;"/></g><g class="point"><path d="M233.9,223.61V12.1H254.47V223.61Z" style="vector-effect: non-scaling-stroke; opacity: 1; stroke-width: 0px; fill: rgb(141, 160, 203); fill-opacity: 1;"/></g><g class="point"><path d="M259.61,228.21V12.1H280.17V228.21Z" style="vector-effect: non-scaling-stroke; opacity: 1; stroke-width: 0px; fill: rgb(141, 160, 203); fill-opacity: 1;"/></g><g class="point"><path d="M285.31,223.61V12.1H305.87V223.61Z" style="vector-effect: non-scaling-stroke; opacity: 1; stroke-width: 0px; fill: rgb(141, 160, 203); fill-opacity: 1;"/></g><g class="point"><path d="M311.01,228.21V12.1H331.58V228.21Z" style="vector-effect: non-scaling-stroke; opacity: 1; stroke-width: 0px; fill: rgb(141, 160, 203); fill-opacity: 1;"/></g><g class="point"><path d="M336.72,225.91V12.1H357.28V225.91Z" style="vector-effect: non-scaling-stroke; opacity: 1; stroke-width: 0px; fill: rgb(141, 160, 203); fill-opacity: 1;"/></g><g class="point"><path d="M362.42,228.21V12.1H382.99V228.21Z" style="vector-effect: non-scaling-stroke; opacity: 1; stroke-width: 0px; fill: rgb(141, 160, 203); fill-opacity: 1;"/></g><g class="point"><path d="M388.13,228.21V12.1H408.69V228.21Z" style="vector-effect: non-scaling-stroke; opacity: 1; stroke-width: 0px; fill: rgb(141, 160, 203); fill-opacity: 1;"/></g><g class="point"><path d="M413.83,230.51V12.1H434.39V230.51Z" style="vector-effect: non-scaling-stroke; opacity: 1; stroke-width: 0px; fill: rgb(141, 160, 203); fill-opacity: 1;"/></g><g class="point"><path d="M439.53,230.51V12.1H460.1V230.51Z" style="vector-effect: non-scaling-stroke; opacity: 1; stroke-width: 0px; fill: rgb(141, 160, 203); fill-opacity: 1;"/></g><g class="point"><path d="M465.24,232.8V12.1H485.8V232.8Z" style="vector-effect: non-scaling-stroke; opacity: 1; stroke-width: 0px; fill: rgb(141, 160, 203); fill-opacity: 1;"/></g><g class="point"><path d="M490.94,232.8V12.1H511.5V232.8Z" style="vector-effect: non-scaling-stroke; opacity: 1; stroke-width: 0px; fill: rgb(141, 160, 203); fill-opacity: 1;"/></g><g class="point"><path d="M516.64,232.8V12.1H537.21V232.8Z" style="vector-effect: non-scaling-stroke; opacity: 1; stroke-width: 0px; fill: rgb(141, 160, 203); fill-opacity: 1;"/></g><g class="point"><path d="M542.35,232.8V12.1H562.91V232.8Z" style="vector-effect: non-scaling-stroke; opacity: 1; stroke-width: 0px; fill: rgb(141, 160, 203); fill-opacity: 1;"/></g><g class="point"><path d="M568.05,235.1V12.1H588.61V235.1Z" style="vector-effect: non-scaling-stroke; opacity: 1; stroke-width: 0px; fill: rgb(141, 160, 203); fill-opacity: 1;"/></g><g class="point"><path d="M593.76,232.8V12.1H614.32V232.8Z" style="vector-effect: non-scaling-stroke; opacity: 1; stroke-width: 0px; fill: rgb(141, 160, 203); fill-opacity: 1;"/></g><g class="point"><path d="M619.46,232.8V12.1H640.02V232.8Z" style="vector-effect: non-scaling-stroke; opacity: 1; stroke-width: 0px; fill: rgb(141, 160, 203); fill-opacity: 1;"/></g><g class="point"><path d="M645.16,237.4V12.1H665.73V237.4Z" style="vector-effect: non-scaling-stroke; opacity: 1; stroke-width: 0px; fill: rgb(141, 160, 203); fill-opacity: 1;"/></g><g class="point"><path d="M670.87,232.8V12.1H691.43V232.8Z" style="vector-effect: non-scaling-stroke; opacity: 1; stroke-width: 0px; fill: rgb(141, 160, 203); fill-opacity: 1;"/></g></g></g></g></g><g class="overplot"/><path class="xlines-above crisp" d="M0,0" style="fill: none;"/><path class="ylines-above crisp" d="M0,0" style="fill: none;"/><g class="overlines-above"/><g class="xaxislayer-above"><g class="xtick"><text text-anchor="start" x="0" y="340" transform="translate(80.85,0) rotate(90,0,332)" style="font-family: 'Arial Narrow'; font-size: 16px; fill: rgb(68, 68, 68); fill-opacity: 1; white-space: pre; opacity: 1;">WI_550002</text></g><g class="xtick"><text text-anchor="start" x="0" y="340" transform="translate(106.56,0) rotate(90,0,332)" style="font-family: 'Arial Narrow'; font-size: 16px; fill: rgb(68, 68, 68); fill-opacity: 1; white-space: pre; opacity: 1;">WI_550153</text></g><g class="xtick"><text text-anchor="start" x="0" y="340" transform="translate(132.26,0) rotate(90,0,332)" style="font-family: 'Arial Narrow'; font-size: 16px; fill: rgb(68, 68, 68); fill-opacity: 1; white-space: pre; opacity: 1;">WI_550006</text></g><g class="xtick"><text text-anchor="start" x="0" y="340" transform="translate(157.95999999999998,0) rotate(90,0,332)" style="font-family: 'Arial Narrow'; font-size: 16px; fill: rgb(68, 68, 68); fill-opacity: 1; white-space: pre; opacity: 1;">MN_6788_353</text></g><g class="xtick"><text text-anchor="start" x="0" y="340" transform="translate(183.67000000000002,0) rotate(90,0,332)" style="font-family: 'Arial Narrow'; font-size: 16px; fill: rgb(68, 68, 68); fill-opacity: 1; white-space: pre; opacity: 1;">MN_9861_354</text></g><g class="xtick"><text text-anchor="start" x="0" y="340" transform="translate(209.37,0) rotate(90,0,332)" style="font-family: 'Arial Narrow'; font-size: 16px; fill: rgb(68, 68, 68); fill-opacity: 1; white-space: pre; opacity: 1;">MN_9871_382</text></g><g class="xtick"><text text-anchor="start" x="0" y="340" transform="translate(235.07,0) rotate(90,0,332)" style="font-family: 'Arial Narrow'; font-size: 16px; fill: rgb(68, 68, 68); fill-opacity: 1; white-space: pre; opacity: 1;">MN_9858_341</text></g><g class="xtick"><text text-anchor="start" x="0" y="340" transform="translate(260.78,0) rotate(90,0,332)" style="font-family: 'Arial Narrow'; font-size: 16px; fill: rgb(68, 68, 68); fill-opacity: 1; white-space: pre; opacity: 1;">MN_6789_351</text></g><g class="xtick"><text text-anchor="start" x="0" y="340" transform="translate(286.48,0) rotate(90,0,332)" style="font-family: 'Arial Narrow'; font-size: 16px; fill: rgb(68, 68, 68); fill-opacity: 1; white-space: pre; opacity: 1;">MN_11537_40</text></g><g class="xtick"><text text-anchor="start" x="0" y="340" transform="translate(312.19,0) rotate(90,0,332)" style="font-family: 'Arial Narrow'; font-size: 16px; fill: rgb(68, 68, 68); fill-opacity: 1; white-space: pre; opacity: 1;">WI_470102</text></g><g class="xtick"><text text-anchor="start" x="0" y="340" transform="translate(337.89,0) rotate(90,0,332)" style="font-family: 'Arial Narrow'; font-size: 16px; fill: rgb(68, 68, 68); fill-opacity: 1; white-space: pre; opacity: 1;">MN_11072_47</text></g><g class="xtick"><text text-anchor="start" x="0" y="340" transform="translate(363.59,0) rotate(90,0,332)" style="font-family: 'Arial Narrow'; font-size: 16px; fill: rgb(68, 68, 68); fill-opacity: 1; white-space: pre; opacity: 1;">MN_9853_335</text></g><g class="xtick"><text text-anchor="start" x="0" y="340" transform="translate(389.3,0) rotate(90,0,332)" style="font-family: 'Arial Narrow'; font-size: 16px; fill: rgb(68, 68, 68); fill-opacity: 1; white-space: pre; opacity: 1;">MN_9875_386</text></g><g class="xtick"><text text-anchor="start" x="0" y="340" transform="translate(415,0) rotate(90,0,332)" style="font-family: 'Arial Narrow'; font-size: 16px; fill: rgb(68, 68, 68); fill-opacity: 1; white-space: pre; opacity: 1;">MN_9879_400</text></g><g class="xtick"><text text-anchor="start" x="0" y="340" transform="translate(440.7,0) rotate(90,0,332)" style="font-family: 'Arial Narrow'; font-size: 16px; fill: rgb(68, 68, 68); fill-opacity: 1; white-space: pre; opacity: 1;">MN_9912_464</text></g><g class="xtick"><text text-anchor="start" x="0" y="340" transform="translate(466.41,0) rotate(90,0,332)" style="font-family: 'Arial Narrow'; font-size: 16px; fill: rgb(68, 68, 68); fill-opacity: 1; white-space: pre; opacity: 1;">WI_550008</text></g><g class="xtick"><text text-anchor="start" x="0" y="340" transform="translate(492.11,0) rotate(90,0,332)" style="font-family: 'Arial Narrow'; font-size: 16px; fill: rgb(68, 68, 68); fill-opacity: 1; white-space: pre; opacity: 1;">MN_11128_42</text></g><g class="xtick"><text text-anchor="start" x="0" y="340" transform="translate(517.81,0) rotate(90,0,332)" style="font-family: 'Arial Narrow'; font-size: 16px; fill: rgb(68, 68, 68); fill-opacity: 1; white-space: pre; opacity: 1;">MN_6784_191</text></g><g class="xtick"><text text-anchor="start" x="0" y="340" transform="translate(543.52,0) rotate(90,0,332)" style="font-family: 'Arial Narrow'; font-size: 16px; fill: rgb(68, 68, 68); fill-opacity: 1; white-space: pre; opacity: 1;">MN_6790_352</text></g><g class="xtick"><text text-anchor="start" x="0" y="340" transform="translate(569.22,0) rotate(90,0,332)" style="font-family: 'Arial Narrow'; font-size: 16px; fill: rgb(68, 68, 68); fill-opacity: 1; white-space: pre; opacity: 1;">MN_9867_365</text></g><g class="xtick"><text text-anchor="start" x="0" y="340" transform="translate(594.93,0) rotate(90,0,332)" style="font-family: 'Arial Narrow'; font-size: 16px; fill: rgb(68, 68, 68); fill-opacity: 1; white-space: pre; opacity: 1;">MN_9873_384</text></g><g class="xtick"><text text-anchor="start" x="0" y="340" transform="translate(620.63,0) rotate(90,0,332)" style="font-family: 'Arial Narrow'; font-size: 16px; fill: rgb(68, 68, 68); fill-opacity: 1; white-space: pre; opacity: 1;">MN_6783_388</text></g><g class="xtick"><text text-anchor="start" x="0" y="340" transform="translate(646.33,0) rotate(90,0,332)" style="font-family: 'Arial Narrow'; font-size: 16px; fill: rgb(68, 68, 68); fill-opacity: 1; white-space: pre; opacity: 1;">MN_9893_45</text></g><g class="xtick"><text text-anchor="start" x="0" y="340" transform="translate(672.04,0) rotate(90,0,332)" style="font-family: 'Arial Narrow'; font-size: 16px; fill: rgb(68, 68, 68); fill-opacity: 1; white-space: pre; opacity: 1;">MN_9878_390</text></g><g class="xtick"><text text-anchor="start" x="0" y="340" transform="translate(697.74,0) rotate(90,0,332)" style="font-family: 'Arial Narrow'; font-size: 16px; fill: rgb(68, 68, 68); fill-opacity: 1; white-space: pre; opacity: 1;">MN_9888_410</text></g><g class="xtick"><text text-anchor="start" x="0" y="340" transform="translate(723.44,0) rotate(90,0,332)" style="font-family: 'Arial Narrow'; font-size: 16px; fill: rgb(68, 68, 68); fill-opacity: 1; white-space: pre; opacity: 1;">MN_9907_458</text></g><g class="xtick"><text text-anchor="start" x="0" y="340" transform="translate(749.15,0) rotate(90,0,332)" style="font-family: 'Arial Narrow'; font-size: 16px; fill: rgb(68, 68, 68); fill-opacity: 1; white-space: pre; opacity: 1;">WI_550216</text></g></g><g class="yaxislayer-above"><g class="ytick"><text text-anchor="end" x="66" y="5.6" transform="translate(0,322)" style="font-family: 'Arial Narrow'; font-size: 16px; fill: rgb(68, 68, 68); fill-opacity: 1; white-space: pre; opacity: 1;">0%</text></g><g class="ytick"><text text-anchor="end" x="66" y="5.6" style="font-family: 'Arial Narrow'; font-size: 16px; fill: rgb(68, 68, 68); fill-opacity: 1; white-space: pre; opacity: 1;" transform="translate(0,276.02)">20%</text></g><g class="ytick"><text text-anchor="end" x="66" y="5.6" style="font-family: 'Arial Narrow'; font-size: 16px; fill: rgb(68, 68, 68); fill-opacity: 1; white-space: pre; opacity: 1;" transform="translate(0,230.04)">40%</text></g><g class="ytick"><text text-anchor="end" x="66" y="5.6" style="font-family: 'Arial Narrow'; font-size: 16px; fill: rgb(68, 68, 68); fill-opacity: 1; white-space: pre; opacity: 1;" transform="translate(0,184.06)">60%</text></g><g class="ytick"><text text-anchor="end" x="66" y="5.6" style="font-family: 'Arial Narrow'; font-size: 16px; fill: rgb(68, 68, 68); fill-opacity: 1; white-space: pre; opacity: 1;" transform="translate(0,138.07999999999998)">80%</text></g><g class="ytick"><text text-anchor="end" x="66" y="5.6" style="font-family: 'Arial Narrow'; font-size: 16px; fill: rgb(68, 68, 68); fill-opacity: 1; white-space: pre; opacity: 1;" transform="translate(0,92.1)">100%</text></g></g><g class="overaxes-above"/></g></g><g class="polarlayer"/><g class="smithlayer"/><g class="ternarylayer"/><g class="geolayer"/><g class="funnelarealayer"/><g class="pielayer"/><g class="iciclelayer"/><g class="treemaplayer"/><g class="sunburstlayer"/><g class="glimages"/><defs id="topdefs-bbddb2"><g class="clips"/><clipPath id="legendbbddb2"><rect width="112" height="100" x="0" y="0"/></clipPath></defs><g class="layer-above"><g class="imagelayer"/><g class="shapelayer"/></g><g class="infolayer"><g class="legend" pointer-events="all" transform="translate(775.88,80)"><rect class="bg" shape-rendering="crispEdges" style="stroke: rgb(68, 68, 68); stroke-opacity: 1; fill: rgb(255, 255, 255); fill-opacity: 1; stroke-width: 0px;" width="112" height="100" x="0" y="0"/><g class="scrollbox" transform="" clip-path="url(#legendbbddb2)"><text class="legendtitletext" text-anchor="start" x="2" y="26" style="font-family: 'Arial Narrow'; font-size: 20px; fill: rgb(68, 68, 68); fill-opacity: 1; white-space: pre;">Vehicle weight</text><g class="groups"><g class="traces" transform="translate(0,41.6)" style="opacity: 1;"><text class="legendtext" text-anchor="start" x="40" y="5.46" style="font-family: 'Arial Narrow'; font-size: 14px; fill: rgb(68, 68, 68); fill-opacity: 1; white-space: pre;">Passenger</text><g class="layers" style="opacity: 1;"><g class="legendfill"/><g class="legendlines"/><g class="legendsymbols"><g class="legendpoints"><path class="legendundefined" d="M6,6H-6V-6H6Z" transform="translate(20,0)" style="stroke-width: 0px; fill: rgb(141, 160, 203); fill-opacity: 1;"/></g></g></g><rect class="legendtoggle" x="0" y="-10.6" width="106.359375" height="21.2" style="fill: rgb(0, 0, 0); fill-opacity: 0;"/></g><g class="traces" transform="translate(0,62.800000000000004)" style="opacity: 1;"><text class="legendtext" text-anchor="start" x="40" y="5.46" style="font-family: 'Arial Narrow'; font-size: 14px; fill: rgb(68, 68, 68); fill-opacity: 1; white-space: pre;">Medium-duty</text><g class="layers" style="opacity: 1;"><g class="legendfill"/><g class="legendlines"/><g class="legendsymbols"><g class="legendpoints"><path class="legendundefined" d="M6,6H-6V-6H6Z" transform="translate(20,0)" style="stroke-width: 0px; fill: rgb(252, 141, 98); fill-opacity: 1;"/></g></g></g><rect class="legendtoggle" x="0" y="-10.6" width="106.359375" height="21.2" style="fill: rgb(0, 0, 0); fill-opacity: 0;"/></g><g class="traces" transform="translate(0,84)" style="opacity: 1;"><text class="legendtext" text-anchor="start" x="40" y="5.46" style="font-family: 'Arial Narrow'; font-size: 14px; fill: rgb(68, 68, 68); fill-opacity: 1; white-space: pre;">Heavy-duty</text><g class="layers" style="opacity: 1;"><g class="legendfill"/><g class="legendlines"/><g class="legendsymbols"><g class="legendpoints"><path class="legendundefined" d="M6,6H-6V-6H6Z" transform="translate(20,0)" style="stroke-width: 0px; fill: rgb(102, 194, 165); fill-opacity: 1;"/></g></g></g><rect class="legendtoggle" x="0" y="-10.6" width="106.359375" height="21.2" style="fill: rgb(0, 0, 0); fill-opacity: 0;"/></g></g></g><rect class="scrollbar" rx="20" ry="3" width="0" height="0" style="fill: rgb(128, 139, 164); fill-opacity: 1;" x="0" y="0"/></g><g class="g-gtitle"/><g class="g-xtitle" transform="translate(0,46.578125)"><text class="xtitle" x="415" y="392" text-anchor="middle" style="font-family: 'Arial Narrow'; font-size: 20px; fill: rgb(68, 68, 68); opacity: 1; font-weight: normal; white-space: pre;">Calibration zone</text></g><g class="g-ytitle" transform="translate(0.5,0)"><text class="ytitle" transform="rotate(-90,18,201)" x="18" y="201" text-anchor="middle" style="font-family: 'Arial Narrow'; font-size: 20px; fill: rgb(68, 68, 68); opacity: 1; font-weight: normal; white-space: pre;">Proportion of all traffic</text></g><g class="annotation" data-index="0" style="opacity: 1;"><g class="annotation-text-g" transform="rotate(0,173,72.13999999999999)"><g class="cursor-pointer" transform="translate(68,61)"><rect class="bg" x="0.5" y="0.5" width="209" height="22" style="stroke-width: 1px; stroke: rgb(0, 0, 0); stroke-opacity: 0; fill: rgb(0, 0, 0); fill-opacity: 0;"/><text class="annotation-text" text-anchor="start" x="2" y="17" style="font-family: 'Arial Narrow'; font-size: 16px; fill: rgb(68, 68, 68); fill-opacity: 1; white-space: pre;">Select locations used for calibration</text></g></g></g></g></svg>