<svg class="main-svg" xmlns="http://www.w3.org/2000/svg" xmlns:xlink="http://www.w3.org/1999/xlink" width="1800" height="900" style="" viewBox="0 0 900 450"><rect x="0" y="0" width="900" height="450" style="fill: rgb(255, 255, 255); fill-opacity: 1;"/><defs id="defs-7764ed"><g class="clips"><clipPath id="clip7764edxyplot" class="plotclip"><rect width="798" height="316"/></clipPath><clipPath class="axesclip" id="clip7764edx"><rect x="52" y="0" width="798" height="450"/></clipPath><clipPath class="axesclip" id="clip7764edy"><rect x="0" y="80" width="900" height="316"/></clipPath><clipPath class="axesclip" id="clip7764edxy"><rect x="52" y="80" width="798" height="316"/></clipPath></g><g class="gradients"/><g class="patterns"/></defs><g class="bglayer"/><g class="layer-below"><g class="imagelayer"/><g class="shapelayer"/></g><g class="cartesianlayer"><g class="subplot xy"><g class="layer-subplot"><g class="shapelayer"/><g class="imagelayer"/></g><g class="gridlayer"><g class="x"><path class="xgrid crisp" transform="translate(192.54,0)" d="M0,80v316" style="stroke: rgb(238, 238, 238); stroke-opacity: 1; stroke-width: 1px;"/><path class="xgrid crisp" transform="translate(305.84000000000003,0)" d="M0,80v316" style="stroke: rgb(238, 238, 238); stroke-opacity: 1; stroke-width: 1px;"/><path class="xgrid crisp" transform="translate(419.14,0)" d="M0,80v316" style="stroke: rgb(238, 238, 238); stroke-opacity: 1; stroke-width: 1px;"/><path class="xgrid crisp" transform="translate(532.44,0)" d="M0,80v316" style="stroke: rgb(238, 238, 238); stroke-opacity: 1; stroke-width: 1px;"/><path class="xgrid crisp" transform="translate(645.74,0)" d="M0,80v316" style="stroke: rgb(238, 238, 238); stroke-opacity: 1; stroke-width: 1px;"/><path class="xgrid crisp" transform="translate(759.04,0)" d="M0,80v316" style="stroke: rgb(238, 238, 238); stroke-opacity: 1; stroke-width: 1px;"/></g><g class="y"><path class="ygrid crisp" transform="translate(0,332.15)" d="M52,0h798" style="stroke: rgb(238, 238, 238); stroke-opacity: 1; stroke-width: 1px;"/><path class="ygrid crisp" transform="translate(0,286.4)" d="M52,0h798" style="stroke: rgb(238, 238, 238); stroke-opacity: 1; stroke-width: 1px;"/><path class="ygrid crisp" transform="translate(0,240.65)" d="M52,0h798" style="stroke: rgb(238, 238, 238); stroke-opacity: 1; stroke-width: 1px;"/><path class="ygrid crisp" transform="translate(0,194.9)" d="M52,0h798" style="stroke: rgb(238, 238, 238); stroke-opacity: 1; stroke-width: 1px;"/><path class="ygrid crisp" transform="translate(0,149.15)" d="M52,0h798" style="stroke: rgb(238, 238, 238); stroke-opacity: 1; stroke-width: 1px;"/><path class="ygrid crisp" transform="translate(0,103.4)" d="M52,0h798" style="stroke: rgb(238, 238, 238); stroke-opacity: 1; stroke-width: 1px;"/></g></g><g class="zerolinelayer"><path class="xzl zl crisp" transform="translate(79.24,0)" d="M0,80v316" style="stroke: rgb(68, 68, 68); stroke-opacity: 1; stroke-width: 1px;"/><path class="yzl zl crisp" transform="translate(0,377.9)" d="M52,0h798" style="stroke: rgb(68, 68, 68); stroke-opacity: 1; stroke-width: 1px;"/></g><path class="xlines-below"/><path class="ylines-below"/><g class="overlines-below"/><g class="xaxislayer-below"/><g class="yaxislayer-below"/><g class="overaxes-below"/><g class="plot" transform="translate(52,80)" clip-path="url(#clip7764edxyplot)"><g class="scatterlayer mlayer"><g class="trace scatter tracedcadce" style="stroke-miterlimit: 2; opacity: 0.7;"><g class="fills"/><g class="errorbars"/><g class="lines"/><g class="points"><path class="point" transform="translate(231.62,196.03)" d="M9,0A9,9 0 1,1 0,-9A9,9 0 0,1 9,0Z" style="opacity: 1; stroke-width: 2px; fill: rgb(0, 84, 164); fill-opacity: 1; stroke: rgb(211, 211, 211); stroke-opacity: 1;"/><path class="point" transform="translate(87.12,269.88)" d="M9,0A9,9 0 1,1 0,-9A9,9 0 0,1 9,0Z" style="opacity: 1; stroke-width: 2px; fill: rgb(0, 84, 164); fill-opacity: 1; stroke: rgb(211, 211, 211); stroke-opacity: 1;"/><path class="point" transform="translate(59.15,284.1)" d="M9,0A9,9 0 1,1 0,-9A9,9 0 0,1 9,0Z" style="opacity: 1; stroke-width: 2px; fill: rgb(0, 84, 164); fill-opacity: 1; stroke: rgb(211, 211, 211); stroke-opacity: 1;"/><path class="point" transform="translate(274.16,184.12)" d="M9,0A9,9 0 1,1 0,-9A9,9 0 0,1 9,0Z" style="opacity: 1; stroke-width: 2px; fill: rgb(0, 84, 164); fill-opacity: 1; stroke: rgb(211, 211, 211); stroke-opacity: 1;"/><path class="point" transform="translate(746.85,27.05)" d="M9,0A9,9 0 1,1 0,-9A9,9 0 0,1 9,0Z" style="opacity: 1; stroke-width: 2px; fill: rgb(0, 84, 164); fill-opacity: 1; stroke: rgb(211, 211, 211); stroke-opacity: 1;"/><path class="point" transform="translate(338.46,188.97)" d="M9,0A9,9 0 1,1 0,-9A9,9 0 0,1 9,0Z" style="opacity: 1; stroke-width: 2px; fill: rgb(0, 84, 164); fill-opacity: 1; stroke: rgb(211, 211, 211); stroke-opacity: 1;"/><path class="point" transform="translate(111.97,253.9)" d="M9,0A9,9 0 1,1 0,-9A9,9 0 0,1 9,0Z" style="opacity: 1; stroke-width: 2px; fill: rgb(0, 84, 164); fill-opacity: 1; stroke: rgb(211, 211, 211); stroke-opacity: 1;"/><path class="point" transform="translate(81.79,265.99)" d="M9,0A9,9 0 1,1 0,-9A9,9 0 0,1 9,0Z" style="opacity: 1; stroke-width: 2px; fill: rgb(0, 84, 164); fill-opacity: 1; stroke: rgb(211, 211, 211); stroke-opacity: 1;"/><path class="point" transform="translate(177.26,238.61)" d="M9,0A9,9 0 1,1 0,-9A9,9 0 0,1 9,0Z" style="opacity: 1; stroke-width: 2px; fill: rgb(0, 84, 164); fill-opacity: 1; stroke: rgb(211, 211, 211); stroke-opacity: 1;"/><path class="point" transform="translate(51.15,288.95)" d="M9,0A9,9 0 1,1 0,-9A9,9 0 0,1 9,0Z" style="opacity: 1; stroke-width: 2px; fill: rgb(0, 84, 164); fill-opacity: 1; stroke: rgb(211, 211, 211); stroke-opacity: 1;"/><path class="point" transform="translate(79.64,275.04)" d="M9,0A9,9 0 1,1 0,-9A9,9 0 0,1 9,0Z" style="opacity: 1; stroke-width: 2px; fill: rgb(0, 84, 164); fill-opacity: 1; stroke: rgb(211, 211, 211); stroke-opacity: 1;"/></g><g class="text"/></g></g></g><g class="overplot"/><path class="xlines-above crisp" d="M0,0" style="fill: none;"/><path class="ylines-above crisp" d="M0,0" style="fill: none;"/><g class="overlines-above"/><g class="xaxislayer-above"><g class="xtick"><text text-anchor="middle" x="0" y="414" transform="translate(79.24,0)" style="font-family: 'Arial Narrow'; font-size: 16px; fill: rgb(68, 68, 68); fill-opacity: 1; white-space: pre; opacity: 1;">0</text></g><g class="xtick"><text text-anchor="middle" x="0" y="414" style="font-family: 'Arial Narrow'; font-size: 16px; fill: rgb(68, 68, 68); fill-opacity: 1; white-space: pre; opacity: 1;" transform="translate(192.54,0)">0.2M</text></g><g class="xtick"><text text-anchor="middle" x="0" y="414" style="font-family: 'Arial Narrow'; font-size: 16px; fill: rgb(68, 68, 68); fill-opacity: 1; white-space: pre; opacity: 1;" transform="translate(305.84000000000003,0)">0.4M</text></g><g class="xtick"><text text-anchor="middle" x="0" y="414" style="font-family: 'Arial Narrow'; font-size: 16px; fill: rgb(68, 68, 68); fill-opacity: 1; white-space: pre; opacity: 1;" transform="translate(419.14,0)">0.6M</text></g><g class="xtick"><text text-anchor="middle" x="0" y="414" style="font-family: 'Arial Narrow'; font-size: 16px; fill: rgb(68, 68, 68); fill-opacity: 1; white-space: pre; opacity: 1;" transform="translate(532.44,0)">0.8M</text></g><g class="xtick"><text text-anchor="middle" x="0" y="414" style="font-family: 'Arial Narrow'; font-size: 16px; fill: rgb(68, 68, 68); fill-opacity: 1; white-space: pre; opacity: 1;" transform="translate(645.74,0)">1M</text></g><g class="xtick"><text text-anchor="middle" x="0" y="414" style="font-family: 'Arial Narrow'; font-size: 16px; fill: rgb(68, 68, 68); fill-opacity: 1; white-space: pre; opacity: 1;" transform="translate(759.04,0)">1.2M</text></g></g><g class="yaxislayer-above"><g class="ytick"><text text-anchor="end" x="50" y="5.6" transform="translate(0,377.9)" style="font-family: 'Arial Narrow'; font-size: 16px; fill: rgb(68, 68, 68); fill-opacity: 1; white-space: pre; opacity: 1;">0</text></g><g class="ytick"><text text-anchor="end" x="50" y="5.6" style="font-family: 'Arial Narrow'; font-size: 16px; fill: rgb(68, 68, 68); fill-opacity: 1; white-space: pre; opacity: 1;" transform="translate(0,332.15)">1M</text></g><g class="ytick"><text text-anchor="end" x="50" y="5.6" style="font-family: 'Arial Narrow'; font-size: 16px; fill: rgb(68, 68, 68); fill-opacity: 1; white-space: pre; opacity: 1;" transform="translate(0,286.4)">2M</text></g><g class="ytick"><text text-anchor="end" x="50" y="5.6" style="font-family: 'Arial Narrow'; font-size: 16px; fill: rgb(68, 68, 68); fill-opacity: 1; white-space: pre; opacity: 1;" transform="translate(0,240.65)">3M</text></g><g class="ytick"><text text-anchor="end" x="50" y="5.6" style="font-family: 'Arial Narrow'; font-size: 16px; fill: rgb(68, 68, 68); fill-opacity: 1; white-space: pre; opacity: 1;" transform="translate(0,194.9)">4M</text></g><g class="ytick"><text text-anchor="end" x="50" y="5.6" style="font-family: 'Arial Narrow'; font-size: 16px; fill: rgb(68, 68, 68); fill-opacity: 1; white-space: pre; opacity: 1;" transform="translate(0,149.15)">5M</text></g><g class="ytick"><text text-anchor="end" x="50" y="5.6" style="font-family: 'Arial Narrow'; font-size: 16px; fill: rgb(68, 68, 68); fill-opacity: 1; white-space: pre; opacity: 1;" transform="translate(0,103.4)">6M</text></g></g><g class="overaxes-above"/></g></g><g class="polarlayer"/><g class="smithlayer"/><g class="ternarylayer"/><g class="geolayer"/><g class="funnelarealayer"/><g class="pielayer"/><g class="iciclelayer"/><g class="treemaplayer"/><g class="sunburstlayer"/><g class="glimages"/><defs id="topdefs-7764ed"><g class="clips"/></defs><g class="layer-above"><g class="imagelayer"/><g class="shapelayer"/></g><g class="infolayer"><g class="g-gtitle"/><g class="g-xtitle" transform="translate(0,-20)"><text class="xtitle" x="451" y="466" text-anchor="middle" style="font-family: 'Arial Narrow'; font-size: 20px; fill: rgb(68, 68, 68); opacity: 1; font-weight: normal; white-space: pre;">Total population</text></g><g class="g-ytitle" transform="translate(16.5,0)"><text class="ytitle" transform="rotate(-90,2,238)" x="2" y="238" text-anchor="middle" style="font-family: 'Arial Narrow'; font-size: 20px; fill: rgb(68, 68, 68); opacity: 1; font-weight: normal; white-space: pre;">Metric tons CO​<tspan style="font-size:70%" dy="0.3em">2</tspan><tspan dy="-0.21em">​</tspan>e</text></g><g class="annotation" data-index="0" style="opacity: 1;"><g class="annotation-text-g" transform="rotate(0,166.5,66.21999999999998)"><g class="cursor-pointer" transform="translate(52,55)"><rect class="bg" x="0.5" y="0.5" width="228" height="22" style="stroke-width: 1px; stroke: rgb(0, 0, 0); stroke-opacity: 0; fill: rgb(0, 0, 0); fill-opacity: 0;"/><text class="annotation-text" text-anchor="start" x="2" y="17" style="font-family: 'Arial Narrow'; font-size: 16px; fill: rgb(68, 68, 68); fill-opacity: 1; white-space: pre;">2021 ACS 5-year population estimates</text></g></g></g></g></svg>