<svg class="main-svg" xmlns="http://www.w3.org/2000/svg" xmlns:xlink="http://www.w3.org/1999/xlink" width="1800" height="900" style="" viewBox="0 0 900 450"><rect x="0" y="0" width="900" height="450" style="fill: rgb(255, 255, 255); fill-opacity: 1;"/><defs id="defs-c4281e"><g class="clips"><clipPath id="clipc4281exyplot" class="plotclip"><rect width="798" height="316"/></clipPath><clipPath class="axesclip" id="clipc4281ex"><rect x="52" y="0" width="798" height="450"/></clipPath><clipPath class="axesclip" id="clipc4281ey"><rect x="0" y="80" width="900" height="316"/></clipPath><clipPath class="axesclip" id="clipc4281exy"><rect x="52" y="80" width="798" height="316"/></clipPath></g><g class="gradients"/><g class="patterns"/></defs><g class="bglayer"/><g class="layer-below"><g class="imagelayer"/><g class="shapelayer"/></g><g class="cartesianlayer"><g class="subplot xy"><g class="layer-subplot"><g class="shapelayer"/><g class="imagelayer"/></g><g class="gridlayer"><g class="x"><path class="xgrid crisp" transform="translate(140.61,0)" d="M0,80v316" style="stroke: rgb(238, 238, 238); stroke-opacity: 1; stroke-width: 1px;"/><path class="xgrid crisp" transform="translate(263.98,0)" d="M0,80v316" style="stroke: rgb(238, 238, 238); stroke-opacity: 1; stroke-width: 1px;"/><path class="xgrid crisp" transform="translate(387.35,0)" d="M0,80v316" style="stroke: rgb(238, 238, 238); stroke-opacity: 1; stroke-width: 1px;"/><path class="xgrid crisp" transform="translate(510.72,0)" d="M0,80v316" style="stroke: rgb(238, 238, 238); stroke-opacity: 1; stroke-width: 1px;"/><path class="xgrid crisp" transform="translate(634.09,0)" d="M0,80v316" style="stroke: rgb(238, 238, 238); stroke-opacity: 1; stroke-width: 1px;"/><path class="xgrid crisp" transform="translate(757.46,0)" d="M0,80v316" style="stroke: rgb(238, 238, 238); stroke-opacity: 1; stroke-width: 1px;"/></g><g class="y"><path class="ygrid crisp" transform="translate(0,383.5)" d="M52,0h798" style="stroke: rgb(238, 238, 238); stroke-opacity: 1; stroke-width: 1px;"/><path class="ygrid crisp" transform="translate(0,310.75)" d="M52,0h798" style="stroke: rgb(238, 238, 238); stroke-opacity: 1; stroke-width: 1px;"/><path class="ygrid crisp" transform="translate(0,238)" d="M52,0h798" style="stroke: rgb(238, 238, 238); stroke-opacity: 1; stroke-width: 1px;"/><path class="ygrid crisp" transform="translate(0,165.25)" d="M52,0h798" style="stroke: rgb(238, 238, 238); stroke-opacity: 1; stroke-width: 1px;"/><path class="ygrid crisp" transform="translate(0,92.5)" d="M52,0h798" style="stroke: rgb(238, 238, 238); stroke-opacity: 1; stroke-width: 1px;"/></g></g><g class="zerolinelayer"/><path class="xlines-below"/><path class="ylines-below"/><g class="overlines-below"/><g class="xaxislayer-below"/><g class="yaxislayer-below"/><g class="overaxes-below"/><g class="plot" transform="translate(52,80)" clip-path="url(#clipc4281exyplot)"><g class="scatterlayer mlayer"><g class="trace scatter trace93013b" style="stroke-miterlimit: 2; opacity: 0.7;"><g class="fills"/><g class="errorbars"/><g class="lines"/><g class="points"><path class="point" transform="translate(390.93,143.45)" d="M9,0A9,9 0 1,1 0,-9A9,9 0 0,1 9,0Z" style="opacity: 1; stroke-width: 2px; fill: rgb(31, 119, 180); fill-opacity: 1; stroke: rgb(211, 211, 211); stroke-opacity: 1;"/><path class="point" transform="translate(304.61,172.55)" d="M9,0A9,9 0 1,1 0,-9A9,9 0 0,1 9,0Z" style="opacity: 1; stroke-width: 2px; fill: rgb(31, 119, 180); fill-opacity: 1; stroke: rgb(211, 211, 211); stroke-opacity: 1;"/><path class="point" transform="translate(386.37,27.05)" d="M9,0A9,9 0 1,1 0,-9A9,9 0 0,1 9,0Z" style="opacity: 1; stroke-width: 2px; fill: rgb(31, 119, 180); fill-opacity: 1; stroke: rgb(211, 211, 211); stroke-opacity: 1;"/><path class="point" transform="translate(564.34,201.65)" d="M9,0A9,9 0 1,1 0,-9A9,9 0 0,1 9,0Z" style="opacity: 1; stroke-width: 2px; fill: rgb(31, 119, 180); fill-opacity: 1; stroke: rgb(211, 211, 211); stroke-opacity: 1;"/><path class="point" transform="translate(588.81,56.15)" d="M9,0A9,9 0 1,1 0,-9A9,9 0 0,1 9,0Z" style="opacity: 1; stroke-width: 2px; fill: rgb(31, 119, 180); fill-opacity: 1; stroke: rgb(211, 211, 211); stroke-opacity: 1;"/><path class="point" transform="translate(571.54,143.45)" d="M9,0A9,9 0 1,1 0,-9A9,9 0 0,1 9,0Z" style="opacity: 1; stroke-width: 2px; fill: rgb(31, 119, 180); fill-opacity: 1; stroke: rgb(211, 211, 211); stroke-opacity: 1;"/><path class="point" transform="translate(51.15,288.95)" d="M9,0A9,9 0 1,1 0,-9A9,9 0 0,1 9,0Z" style="opacity: 1; stroke-width: 2px; fill: rgb(31, 119, 180); fill-opacity: 1; stroke: rgb(211, 211, 211); stroke-opacity: 1;"/><path class="point" transform="translate(295.37,158)" d="M9,0A9,9 0 1,1 0,-9A9,9 0 0,1 9,0Z" style="opacity: 1; stroke-width: 2px; fill: rgb(31, 119, 180); fill-opacity: 1; stroke: rgb(211, 211, 211); stroke-opacity: 1;"/><path class="point" transform="translate(397,85.25)" d="M9,0A9,9 0 1,1 0,-9A9,9 0 0,1 9,0Z" style="opacity: 1; stroke-width: 2px; fill: rgb(31, 119, 180); fill-opacity: 1; stroke: rgb(211, 211, 211); stroke-opacity: 1;"/><path class="point" transform="translate(746.85,27.05)" d="M9,0A9,9 0 1,1 0,-9A9,9 0 0,1 9,0Z" style="opacity: 1; stroke-width: 2px; fill: rgb(31, 119, 180); fill-opacity: 1; stroke: rgb(211, 211, 211); stroke-opacity: 1;"/><path class="point" transform="translate(362.95,201.65)" d="M9,0A9,9 0 1,1 0,-9A9,9 0 0,1 9,0Z" style="opacity: 1; stroke-width: 2px; fill: rgb(31, 119, 180); fill-opacity: 1; stroke: rgb(211, 211, 211); stroke-opacity: 1;"/></g><g class="text"/></g></g></g><g class="overplot"/><path class="xlines-above crisp" d="M0,0" style="fill: none;"/><path class="ylines-above crisp" d="M0,0" style="fill: none;"/><g class="overlines-above"/><g class="xaxislayer-above"><g class="xtick"><text text-anchor="middle" x="0" y="414" transform="translate(140.61,0)" style="font-family: 'Arial Narrow'; font-size: 16px; fill: rgb(68, 68, 68); fill-opacity: 1; white-space: pre; opacity: 1;">200</text></g><g class="xtick"><text text-anchor="middle" x="0" y="414" style="font-family: 'Arial Narrow'; font-size: 16px; fill: rgb(68, 68, 68); fill-opacity: 1; white-space: pre; opacity: 1;" transform="translate(263.98,0)">300</text></g><g class="xtick"><text text-anchor="middle" x="0" y="414" style="font-family: 'Arial Narrow'; font-size: 16px; fill: rgb(68, 68, 68); fill-opacity: 1; white-space: pre; opacity: 1;" transform="translate(387.35,0)">400</text></g><g class="xtick"><text text-anchor="middle" x="0" y="414" style="font-family: 'Arial Narrow'; font-size: 16px; fill: rgb(68, 68, 68); fill-opacity: 1; white-space: pre; opacity: 1;" transform="translate(510.72,0)">500</text></g><g class="xtick"><text text-anchor="middle" x="0" y="414" style="font-family: 'Arial Narrow'; font-size: 16px; fill: rgb(68, 68, 68); fill-opacity: 1; white-space: pre; opacity: 1;" transform="translate(634.09,0)">600</text></g><g class="xtick"><text text-anchor="middle" x="0" y="414" style="font-family: 'Arial Narrow'; font-size: 16px; fill: rgb(68, 68, 68); fill-opacity: 1; white-space: pre; opacity: 1;" transform="translate(757.46,0)">700</text></g></g><g class="yaxislayer-above"><g class="ytick"><text text-anchor="end" x="50" y="5.6" transform="translate(0,383.5)" style="font-family: 'Arial Narrow'; font-size: 16px; fill: rgb(68, 68, 68); fill-opacity: 1; white-space: pre; opacity: 1;">5.5</text></g><g class="ytick"><text text-anchor="end" x="50" y="5.6" style="font-family: 'Arial Narrow'; font-size: 16px; fill: rgb(68, 68, 68); fill-opacity: 1; white-space: pre; opacity: 1;" transform="translate(0,310.75)">6</text></g><g class="ytick"><text text-anchor="end" x="50" y="5.6" style="font-family: 'Arial Narrow'; font-size: 16px; fill: rgb(68, 68, 68); fill-opacity: 1; white-space: pre; opacity: 1;" transform="translate(0,238)">6.5</text></g><g class="ytick"><text text-anchor="end" x="50" y="5.6" style="font-family: 'Arial Narrow'; font-size: 16px; fill: rgb(68, 68, 68); fill-opacity: 1; white-space: pre; opacity: 1;" transform="translate(0,165.25)">7</text></g><g class="ytick"><text text-anchor="end" x="50" y="5.6" style="font-family: 'Arial Narrow'; font-size: 16px; fill: rgb(68, 68, 68); fill-opacity: 1; white-space: pre; opacity: 1;" transform="translate(0,92.5)">7.5</text></g></g><g class="overaxes-above"/></g></g><g class="polarlayer"/><g class="smithlayer"/><g class="ternarylayer"/><g class="geolayer"/><g class="funnelarealayer"/><g class="pielayer"/><g class="iciclelayer"/><g class="treemaplayer"/><g class="sunburstlayer"/><g class="glimages"/><defs id="topdefs-c4281e"><g class="clips"/></defs><g class="layer-above"><g class="imagelayer"/><g class="shapelayer"/></g><g class="infolayer"><g class="g-gtitle"/><g class="g-xtitle" transform="translate(0,-20.21875)"><text class="xtitle" x="451" y="466" text-anchor="middle" style="font-family: 'Arial Narrow'; font-size: 20px; fill: rgb(68, 68, 68); opacity: 1; font-weight: normal; white-space: pre;">County area (square miles)</text></g><g class="g-ytitle" transform="translate(16.5,0)"><text class="ytitle" transform="rotate(-90,2,238)" x="2" y="238" text-anchor="middle" style="font-family: 'Arial Narrow'; font-size: 20px; fill: rgb(68, 68, 68); opacity: 1; font-weight: normal; white-space: pre;">Average trip distance (miles)</text></g><g class="annotation" data-index="0" style="opacity: 1;"><g class="annotation-text-g" transform="rotate(0,134,66.21999999999998)"><g class="cursor-pointer" transform="translate(52,55)"><rect class="bg" x="0.5" y="0.5" width="163" height="22" style="stroke-width: 1px; stroke: rgb(0, 0, 0); stroke-opacity: 0; fill: rgb(0, 0, 0); fill-opacity: 0;"/><text class="annotation-text" text-anchor="start" x="2" y="17" style="font-family: 'Arial Narrow'; font-size: 16px; fill: rgb(68, 68, 68); fill-opacity: 1; white-space: pre;">General positive correlation</text></g></g></g></g></svg>