<svg class="main-svg" xmlns="http://www.w3.org/2000/svg" xmlns:xlink="http://www.w3.org/1999/xlink" width="1800" height="900" style="" viewBox="0 0 900 450"><rect x="0" y="0" width="900" height="450" style="fill: rgb(255, 255, 255); fill-opacity: 1;"/><defs id="defs-c6929c"><g class="clips"><clipPath id="clipc6929cxyplot" class="plotclip"><rect width="724" height="316"/></clipPath><clipPath class="axesclip" id="clipc6929cx"><rect x="57" y="0" width="724" height="450"/></clipPath><clipPath class="axesclip" id="clipc6929cy"><rect x="0" y="80" width="900" height="316"/></clipPath><clipPath class="axesclip" id="clipc6929cxy"><rect x="57" y="80" width="724" height="316"/></clipPath></g><g class="gradients"/><g class="patterns"/></defs><g class="bglayer"/><g class="layer-below"><g class="imagelayer"/><g class="shapelayer"/></g><g class="cartesianlayer"><g class="subplot xy"><g class="layer-subplot"><g class="shapelayer"/><g class="imagelayer"/></g><g class="gridlayer"><g class="x"><path class="xgrid crisp" transform="translate(103.2,0)" d="M0,80v316" style="stroke: rgb(238, 238, 238); stroke-opacity: 1; stroke-width: 1px;"/><path class="xgrid crisp" transform="translate(313.73,0)" d="M0,80v316" style="stroke: rgb(238, 238, 238); stroke-opacity: 1; stroke-width: 1px;"/><path class="xgrid crisp" transform="translate(524.27,0)" d="M0,80v316" style="stroke: rgb(238, 238, 238); stroke-opacity: 1; stroke-width: 1px;"/><path class="xgrid crisp" transform="translate(734.8,0)" d="M0,80v316" style="stroke: rgb(238, 238, 238); stroke-opacity: 1; stroke-width: 1px;"/></g><g class="y"><path class="ygrid crisp" transform="translate(0,331.84000000000003)" d="M57,0h724" style="stroke: rgb(238, 238, 238); stroke-opacity: 1; stroke-width: 1px;"/><path class="ygrid crisp" transform="translate(0,285.41999999999996)" d="M57,0h724" style="stroke: rgb(238, 238, 238); stroke-opacity: 1; stroke-width: 1px;"/><path class="ygrid crisp" transform="translate(0,239)" d="M57,0h724" style="stroke: rgb(238, 238, 238); stroke-opacity: 1; stroke-width: 1px;"/><path class="ygrid crisp" transform="translate(0,192.57)" d="M57,0h724" style="stroke: rgb(238, 238, 238); stroke-opacity: 1; stroke-width: 1px;"/><path class="ygrid crisp" transform="translate(0,146.15)" d="M57,0h724" style="stroke: rgb(238, 238, 238); stroke-opacity: 1; stroke-width: 1px;"/><path class="ygrid crisp" transform="translate(0,99.72)" d="M57,0h724" style="stroke: rgb(238, 238, 238); stroke-opacity: 1; stroke-width: 1px;"/></g></g><g class="zerolinelayer"><path class="yzl zl crisp" transform="translate(0,378.27)" d="M57,0h724" style="stroke: rgb(68, 68, 68); stroke-opacity: 1; stroke-width: 1px;"/></g><path class="xlines-below"/><path class="ylines-below"/><g class="overlines-below"/><g class="xaxislayer-below"/><g class="yaxislayer-below"/><g class="overaxes-below"/><g class="plot" transform="translate(57,80)" clip-path="url(#clipc6929cxyplot)"><g class="scatterlayer mlayer"><g class="trace scatter tracea8100f" style="stroke-miterlimit: 2; opacity: 0.8;"><g class="fills"/><g class="errorbars"/><g class="lines"><path class="js-line" d="M46.2,222.6L256.73,222.37L467.27,235.13L677.8,227.84" style="vector-effect: non-scaling-stroke; fill: none; stroke: rgb(102, 194, 165); stroke-opacity: 1; stroke-width: 3px; opacity: 1;"/><path class="js-line" d="M46.2,276.68L256.73,276.85L467.27,280.46L677.8,278.25" style="vector-effect: non-scaling-stroke; fill: none; stroke: rgb(102, 194, 165); stroke-opacity: 1; stroke-width: 3px; opacity: 1;"/><path class="js-line" d="M46.2,278.55L256.73,278.69L467.27,281.46L677.8,279.35" style="vector-effect: non-scaling-stroke; fill: none; stroke: rgb(102, 194, 165); stroke-opacity: 1; stroke-width: 3px; opacity: 1;"/><path class="js-line" d="M46.2,199.3L256.73,199.78L467.27,216.58L677.8,207.63" style="vector-effect: non-scaling-stroke; fill: none; stroke: rgb(102, 194, 165); stroke-opacity: 1; stroke-width: 3px; opacity: 1;"/><path class="js-line" d="M46.2,28.15L256.73,25.8L467.27,78.28L677.8,55.29" style="vector-effect: non-scaling-stroke; fill: none; stroke: rgb(102, 194, 165); stroke-opacity: 1; stroke-width: 3px; opacity: 1;"/><path class="js-line" d="M46.2,188.66L256.73,189.6L467.27,210L677.8,201.07" style="vector-effect: non-scaling-stroke; fill: none; stroke: rgb(102, 194, 165); stroke-opacity: 1; stroke-width: 3px; opacity: 1;"/><path class="js-line" d="M46.2,265.29L256.73,264.62L467.27,269.88L677.8,266.06" style="vector-effect: non-scaling-stroke; fill: none; stroke: rgb(102, 194, 165); stroke-opacity: 1; stroke-width: 3px; opacity: 1;"/><path class="js-line" d="M46.2,275.79L256.73,275.7L467.27,278.72L677.8,276.46" style="vector-effect: non-scaling-stroke; fill: none; stroke: rgb(102, 194, 165); stroke-opacity: 1; stroke-width: 3px; opacity: 1;"/><path class="js-line" d="M46.2,241.05L256.73,240.46L467.27,250.19L677.8,244.5" style="vector-effect: non-scaling-stroke; fill: none; stroke: rgb(102, 194, 165); stroke-opacity: 1; stroke-width: 3px; opacity: 1;"/></g><g class="points"><path class="point" transform="translate(46.2,222.6)" d="M8,0A8,8 0 1,1 0,-8A8,8 0 0,1 8,0Z" style="opacity: 1; stroke-width: 2px; fill: rgb(102, 194, 165); fill-opacity: 1; stroke: rgb(211, 211, 211); stroke-opacity: 1;"/><path class="point" transform="translate(256.73,222.37)" d="M8,0A8,8 0 1,1 0,-8A8,8 0 0,1 8,0Z" style="opacity: 1; stroke-width: 2px; fill: rgb(102, 194, 165); fill-opacity: 1; stroke: rgb(211, 211, 211); stroke-opacity: 1;"/><path class="point" transform="translate(467.27,235.13)" d="M8,0A8,8 0 1,1 0,-8A8,8 0 0,1 8,0Z" style="opacity: 1; stroke-width: 2px; fill: rgb(102, 194, 165); fill-opacity: 1; stroke: rgb(211, 211, 211); stroke-opacity: 1;"/><path class="point" transform="translate(677.8,227.84)" d="M8,0A8,8 0 1,1 0,-8A8,8 0 0,1 8,0Z" style="opacity: 1; stroke-width: 2px; fill: rgb(102, 194, 165); fill-opacity: 1; stroke: rgb(211, 211, 211); stroke-opacity: 1;"/><path class="point" transform="translate(46.2,276.68)" d="M8,0A8,8 0 1,1 0,-8A8,8 0 0,1 8,0Z" style="opacity: 1; stroke-width: 2px; fill: rgb(102, 194, 165); fill-opacity: 1; stroke: rgb(211, 211, 211); stroke-opacity: 1;"/><path class="point" transform="translate(256.73,276.85)" d="M8,0A8,8 0 1,1 0,-8A8,8 0 0,1 8,0Z" style="opacity: 1; stroke-width: 2px; fill: rgb(102, 194, 165); fill-opacity: 1; stroke: rgb(211, 211, 211); stroke-opacity: 1;"/><path class="point" transform="translate(467.27,280.46)" d="M8,0A8,8 0 1,1 0,-8A8,8 0 0,1 8,0Z" style="opacity: 1; stroke-width: 2px; fill: rgb(102, 194, 165); fill-opacity: 1; stroke: rgb(211, 211, 211); stroke-opacity: 1;"/><path class="point" transform="translate(677.8,278.25)" d="M8,0A8,8 0 1,1 0,-8A8,8 0 0,1 8,0Z" style="opacity: 1; stroke-width: 2px; fill: rgb(102, 194, 165); fill-opacity: 1; stroke: rgb(211, 211, 211); stroke-opacity: 1;"/><path class="point" transform="translate(46.2,278.55)" d="M8,0A8,8 0 1,1 0,-8A8,8 0 0,1 8,0Z" style="opacity: 1; stroke-width: 2px; fill: rgb(102, 194, 165); fill-opacity: 1; stroke: rgb(211, 211, 211); stroke-opacity: 1;"/><path class="point" transform="translate(256.73,278.69)" d="M8,0A8,8 0 1,1 0,-8A8,8 0 0,1 8,0Z" style="opacity: 1; stroke-width: 2px; fill: rgb(102, 194, 165); fill-opacity: 1; stroke: rgb(211, 211, 211); stroke-opacity: 1;"/><path class="point" transform="translate(467.27,281.46)" d="M8,0A8,8 0 1,1 0,-8A8,8 0 0,1 8,0Z" style="opacity: 1; stroke-width: 2px; fill: rgb(102, 194, 165); fill-opacity: 1; stroke: rgb(211, 211, 211); stroke-opacity: 1;"/><path class="point" transform="translate(677.8,279.35)" d="M8,0A8,8 0 1,1 0,-8A8,8 0 0,1 8,0Z" style="opacity: 1; stroke-width: 2px; fill: rgb(102, 194, 165); fill-opacity: 1; stroke: rgb(211, 211, 211); stroke-opacity: 1;"/><path class="point" transform="translate(46.2,199.3)" d="M8,0A8,8 0 1,1 0,-8A8,8 0 0,1 8,0Z" style="opacity: 1; stroke-width: 2px; fill: rgb(102, 194, 165); fill-opacity: 1; stroke: rgb(211, 211, 211); stroke-opacity: 1;"/><path class="point" transform="translate(256.73,199.78)" d="M8,0A8,8 0 1,1 0,-8A8,8 0 0,1 8,0Z" style="opacity: 1; stroke-width: 2px; fill: rgb(102, 194, 165); fill-opacity: 1; stroke: rgb(211, 211, 211); stroke-opacity: 1;"/><path class="point" transform="translate(467.27,216.58)" d="M8,0A8,8 0 1,1 0,-8A8,8 0 0,1 8,0Z" style="opacity: 1; stroke-width: 2px; fill: rgb(102, 194, 165); fill-opacity: 1; stroke: rgb(211, 211, 211); stroke-opacity: 1;"/><path class="point" transform="translate(677.8,207.63)" d="M8,0A8,8 0 1,1 0,-8A8,8 0 0,1 8,0Z" style="opacity: 1; stroke-width: 2px; fill: rgb(102, 194, 165); fill-opacity: 1; stroke: rgb(211, 211, 211); stroke-opacity: 1;"/><path class="point" transform="translate(46.2,28.15)" d="M8,0A8,8 0 1,1 0,-8A8,8 0 0,1 8,0Z" style="opacity: 1; stroke-width: 2px; fill: rgb(102, 194, 165); fill-opacity: 1; stroke: rgb(211, 211, 211); stroke-opacity: 1;"/><path class="point" transform="translate(256.73,25.8)" d="M8,0A8,8 0 1,1 0,-8A8,8 0 0,1 8,0Z" style="opacity: 1; stroke-width: 2px; fill: rgb(102, 194, 165); fill-opacity: 1; stroke: rgb(211, 211, 211); stroke-opacity: 1;"/><path class="point" transform="translate(467.27,78.28)" d="M8,0A8,8 0 1,1 0,-8A8,8 0 0,1 8,0Z" style="opacity: 1; stroke-width: 2px; fill: rgb(102, 194, 165); fill-opacity: 1; stroke: rgb(211, 211, 211); stroke-opacity: 1;"/><path class="point" transform="translate(677.8,55.29)" d="M8,0A8,8 0 1,1 0,-8A8,8 0 0,1 8,0Z" style="opacity: 1; stroke-width: 2px; fill: rgb(102, 194, 165); fill-opacity: 1; stroke: rgb(211, 211, 211); stroke-opacity: 1;"/><path class="point" transform="translate(46.2,188.66)" d="M8,0A8,8 0 1,1 0,-8A8,8 0 0,1 8,0Z" style="opacity: 1; stroke-width: 2px; fill: rgb(102, 194, 165); fill-opacity: 1; stroke: rgb(211, 211, 211); stroke-opacity: 1;"/><path class="point" transform="translate(256.73,189.6)" d="M8,0A8,8 0 1,1 0,-8A8,8 0 0,1 8,0Z" style="opacity: 1; stroke-width: 2px; fill: rgb(102, 194, 165); fill-opacity: 1; stroke: rgb(211, 211, 211); stroke-opacity: 1;"/><path class="point" transform="translate(467.27,210)" d="M8,0A8,8 0 1,1 0,-8A8,8 0 0,1 8,0Z" style="opacity: 1; stroke-width: 2px; fill: rgb(102, 194, 165); fill-opacity: 1; stroke: rgb(211, 211, 211); stroke-opacity: 1;"/><path class="point" transform="translate(677.8,201.07)" d="M8,0A8,8 0 1,1 0,-8A8,8 0 0,1 8,0Z" style="opacity: 1; stroke-width: 2px; fill: rgb(102, 194, 165); fill-opacity: 1; stroke: rgb(211, 211, 211); stroke-opacity: 1;"/><path class="point" transform="translate(46.2,265.29)" d="M8,0A8,8 0 1,1 0,-8A8,8 0 0,1 8,0Z" style="opacity: 1; stroke-width: 2px; fill: rgb(102, 194, 165); fill-opacity: 1; stroke: rgb(211, 211, 211); stroke-opacity: 1;"/><path class="point" transform="translate(256.73,264.62)" d="M8,0A8,8 0 1,1 0,-8A8,8 0 0,1 8,0Z" style="opacity: 1; stroke-width: 2px; fill: rgb(102, 194, 165); fill-opacity: 1; stroke: rgb(211, 211, 211); stroke-opacity: 1;"/><path class="point" transform="translate(467.27,269.88)" d="M8,0A8,8 0 1,1 0,-8A8,8 0 0,1 8,0Z" style="opacity: 1; stroke-width: 2px; fill: rgb(102, 194, 165); fill-opacity: 1; stroke: rgb(211, 211, 211); stroke-opacity: 1;"/><path class="point" transform="translate(677.8,266.06)" d="M8,0A8,8 0 1,1 0,-8A8,8 0 0,1 8,0Z" style="opacity: 1; stroke-width: 2px; fill: rgb(102, 194, 165); fill-opacity: 1; stroke: rgb(211, 211, 211); stroke-opacity: 1;"/><path class="point" transform="translate(46.2,275.79)" d="M8,0A8,8 0 1,1 0,-8A8,8 0 0,1 8,0Z" style="opacity: 1; stroke-width: 2px; fill: rgb(102, 194, 165); fill-opacity: 1; stroke: rgb(211, 211, 211); stroke-opacity: 1;"/><path class="point" transform="translate(256.73,275.7)" d="M8,0A8,8 0 1,1 0,-8A8,8 0 0,1 8,0Z" style="opacity: 1; stroke-width: 2px; fill: rgb(102, 194, 165); fill-opacity: 1; stroke: rgb(211, 211, 211); stroke-opacity: 1;"/><path class="point" transform="translate(467.27,278.72)" d="M8,0A8,8 0 1,1 0,-8A8,8 0 0,1 8,0Z" style="opacity: 1; stroke-width: 2px; fill: rgb(102, 194, 165); fill-opacity: 1; stroke: rgb(211, 211, 211); stroke-opacity: 1;"/><path class="point" transform="translate(677.8,276.46)" d="M8,0A8,8 0 1,1 0,-8A8,8 0 0,1 8,0Z" style="opacity: 1; stroke-width: 2px; fill: rgb(102, 194, 165); fill-opacity: 1; stroke: rgb(211, 211, 211); stroke-opacity: 1;"/><path class="point" transform="translate(46.2,241.05)" d="M8,0A8,8 0 1,1 0,-8A8,8 0 0,1 8,0Z" style="opacity: 1; stroke-width: 2px; fill: rgb(102, 194, 165); fill-opacity: 1; stroke: rgb(211, 211, 211); stroke-opacity: 1;"/><path class="point" transform="translate(256.73,240.46)" d="M8,0A8,8 0 1,1 0,-8A8,8 0 0,1 8,0Z" style="opacity: 1; stroke-width: 2px; fill: rgb(102, 194, 165); fill-opacity: 1; stroke: rgb(211, 211, 211); stroke-opacity: 1;"/><path class="point" transform="translate(467.27,250.19)" d="M8,0A8,8 0 1,1 0,-8A8,8 0 0,1 8,0Z" style="opacity: 1; stroke-width: 2px; fill: rgb(102, 194, 165); fill-opacity: 1; stroke: rgb(211, 211, 211); stroke-opacity: 1;"/><path class="point" transform="translate(677.8,244.5)" d="M8,0A8,8 0 1,1 0,-8A8,8 0 0,1 8,0Z" style="opacity: 1; stroke-width: 2px; fill: rgb(102, 194, 165); fill-opacity: 1; stroke: rgb(211, 211, 211); stroke-opacity: 1;"/></g><g class="text"/></g><g class="trace scatter tracee55196" style="stroke-miterlimit: 2; opacity: 0.8;"><g class="fills"/><g class="errorbars"/><g class="lines"><path class="js-line" d="M677.8,289.16L467.27,290.2L256.73,288.96L46.2,289.22" style="vector-effect: non-scaling-stroke; fill: none; stroke: rgb(141, 160, 203); stroke-opacity: 1; stroke-width: 3px; opacity: 1;"/><path class="js-line" d="M677.8,267.57L467.27,271.17L256.73,266.68L46.2,266.73" style="vector-effect: non-scaling-stroke; fill: none; stroke: rgb(141, 160, 203); stroke-opacity: 1; stroke-width: 3px; opacity: 1;"/></g><g class="points"><path class="point" transform="translate(677.8,289.16)" d="M8,0A8,8 0 1,1 0,-8A8,8 0 0,1 8,0Z" style="opacity: 1; stroke-width: 2px; fill: rgb(141, 160, 203); fill-opacity: 1; stroke: rgb(211, 211, 211); stroke-opacity: 1;"/><path class="point" transform="translate(467.27,290.2)" d="M8,0A8,8 0 1,1 0,-8A8,8 0 0,1 8,0Z" style="opacity: 1; stroke-width: 2px; fill: rgb(141, 160, 203); fill-opacity: 1; stroke: rgb(211, 211, 211); stroke-opacity: 1;"/><path class="point" transform="translate(256.73,288.96)" d="M8,0A8,8 0 1,1 0,-8A8,8 0 0,1 8,0Z" style="opacity: 1; stroke-width: 2px; fill: rgb(141, 160, 203); fill-opacity: 1; stroke: rgb(211, 211, 211); stroke-opacity: 1;"/><path class="point" transform="translate(46.2,289.22)" d="M8,0A8,8 0 1,1 0,-8A8,8 0 0,1 8,0Z" style="opacity: 1; stroke-width: 2px; fill: rgb(141, 160, 203); fill-opacity: 1; stroke: rgb(211, 211, 211); stroke-opacity: 1;"/><path class="point" transform="translate(677.8,267.57)" d="M8,0A8,8 0 1,1 0,-8A8,8 0 0,1 8,0Z" style="opacity: 1; stroke-width: 2px; fill: rgb(141, 160, 203); fill-opacity: 1; stroke: rgb(211, 211, 211); stroke-opacity: 1;"/><path class="point" transform="translate(467.27,271.17)" d="M8,0A8,8 0 1,1 0,-8A8,8 0 0,1 8,0Z" style="opacity: 1; stroke-width: 2px; fill: rgb(141, 160, 203); fill-opacity: 1; stroke: rgb(211, 211, 211); stroke-opacity: 1;"/><path class="point" transform="translate(256.73,266.68)" d="M8,0A8,8 0 1,1 0,-8A8,8 0 0,1 8,0Z" style="opacity: 1; stroke-width: 2px; fill: rgb(141, 160, 203); fill-opacity: 1; stroke: rgb(211, 211, 211); stroke-opacity: 1;"/><path class="point" transform="translate(46.2,266.73)" d="M8,0A8,8 0 1,1 0,-8A8,8 0 0,1 8,0Z" style="opacity: 1; stroke-width: 2px; fill: rgb(141, 160, 203); fill-opacity: 1; stroke: rgb(211, 211, 211); stroke-opacity: 1;"/></g><g class="text"/></g></g></g><g class="overplot"/><path class="xlines-above crisp" d="M0,0" style="fill: none;"/><path class="ylines-above crisp" d="M0,0" style="fill: none;"/><g class="overlines-above"/><g class="xaxislayer-above"><g class="xtick"><text text-anchor="middle" x="0" y="414" transform="translate(103.2,0)" style="font-family: 'Arial Narrow'; font-size: 16px; fill: rgb(68, 68, 68); fill-opacity: 1; white-space: pre; opacity: 1;">2018</text></g><g class="xtick"><text text-anchor="middle" x="0" y="414" transform="translate(313.73,0)" style="font-family: 'Arial Narrow'; font-size: 16px; fill: rgb(68, 68, 68); fill-opacity: 1; white-space: pre; opacity: 1;">2019</text></g><g class="xtick"><text text-anchor="middle" x="0" y="414" transform="translate(524.27,0)" style="font-family: 'Arial Narrow'; font-size: 16px; fill: rgb(68, 68, 68); fill-opacity: 1; white-space: pre; opacity: 1;">2020</text></g><g class="xtick"><text text-anchor="middle" x="0" y="414" transform="translate(734.8,0)" style="font-family: 'Arial Narrow'; font-size: 16px; fill: rgb(68, 68, 68); fill-opacity: 1; white-space: pre; opacity: 1;">2021</text></g></g><g class="yaxislayer-above"><g class="ytick"><text text-anchor="end" x="55" y="5.6" transform="translate(0,378.27)" style="font-family: 'Arial Narrow'; font-size: 16px; fill: rgb(68, 68, 68); fill-opacity: 1; white-space: pre; opacity: 1;">0</text></g><g class="ytick"><text text-anchor="end" x="55" y="5.6" style="font-family: 'Arial Narrow'; font-size: 16px; fill: rgb(68, 68, 68); fill-opacity: 1; white-space: pre; opacity: 1;" transform="translate(0,331.84000000000003)">2B</text></g><g class="ytick"><text text-anchor="end" x="55" y="5.6" style="font-family: 'Arial Narrow'; font-size: 16px; fill: rgb(68, 68, 68); fill-opacity: 1; white-space: pre; opacity: 1;" transform="translate(0,285.41999999999996)">4B</text></g><g class="ytick"><text text-anchor="end" x="55" y="5.6" style="font-family: 'Arial Narrow'; font-size: 16px; fill: rgb(68, 68, 68); fill-opacity: 1; white-space: pre; opacity: 1;" transform="translate(0,239)">6B</text></g><g class="ytick"><text text-anchor="end" x="55" y="5.6" style="font-family: 'Arial Narrow'; font-size: 16px; fill: rgb(68, 68, 68); fill-opacity: 1; white-space: pre; opacity: 1;" transform="translate(0,192.57)">8B</text></g><g class="ytick"><text text-anchor="end" x="55" y="5.6" style="font-family: 'Arial Narrow'; font-size: 16px; fill: rgb(68, 68, 68); fill-opacity: 1; white-space: pre; opacity: 1;" transform="translate(0,146.15)">10B</text></g><g class="ytick"><text text-anchor="end" x="55" y="5.6" style="font-family: 'Arial Narrow'; font-size: 16px; fill: rgb(68, 68, 68); fill-opacity: 1; white-space: pre; opacity: 1;" transform="translate(0,99.72)">12B</text></g></g><g class="overaxes-above"/></g></g><g class="polarlayer"/><g class="smithlayer"/><g class="ternarylayer"/><g class="geolayer"/><g class="funnelarealayer"/><g class="pielayer"/><g class="iciclelayer"/><g class="treemaplayer"/><g class="sunburstlayer"/><g class="glimages"/><defs id="topdefs-c6929c"><g class="clips"/><clipPath id="legendc6929c"><rect width="93" height="79" x="0" y="0"/></clipPath></defs><g class="layer-above"><g class="imagelayer"/><g class="shapelayer"/></g><g class="infolayer"><g class="legend" pointer-events="all" transform="translate(795.48,80)"><rect class="bg" shape-rendering="crispEdges" style="stroke: rgb(68, 68, 68); stroke-opacity: 1; fill: rgb(255, 255, 255); fill-opacity: 1; stroke-width: 0px;" width="93" height="79" x="0" y="0"/><g class="scrollbox" transform="" clip-path="url(#legendc6929c)"><text class="legendtitletext" text-anchor="start" x="2" y="26" style="font-family: 'Arial Narrow'; font-size: 20px; fill: rgb(68, 68, 68); fill-opacity: 1; white-space: pre;">Data source</text><g class="groups"><g class="traces" transform="translate(0,41.6)" style="opacity: 1;"><text class="legendtext" text-anchor="start" x="40" y="5.46" style="font-family: 'Arial Narrow'; font-size: 14px; fill: rgb(68, 68, 68); fill-opacity: 1; white-space: pre;">MnDOT</text><g class="layers" style="opacity: 0.8;"><g class="legendfill"/><g class="legendlines"><path class="js-line" d="M5,0h30" style="fill: none; stroke: rgb(102, 194, 165); stroke-opacity: 1; stroke-width: 3px;"/></g><g class="legendsymbols"><g class="legendpoints"><path class="scatterpts" transform="translate(20,0)" d="M8,0A8,8 0 1,1 0,-8A8,8 0 0,1 8,0Z" style="opacity: 1; stroke-width: 2px; fill: rgb(102, 194, 165); fill-opacity: 1; stroke: rgb(211, 211, 211); stroke-opacity: 1;"/></g></g></g><rect class="legendtoggle" x="0" y="-10.6" width="83.375" height="21.2" style="fill: rgb(0, 0, 0); fill-opacity: 0;"/></g><g class="traces" transform="translate(0,62.800000000000004)" style="opacity: 1;"><text class="legendtext" text-anchor="start" x="40" y="5.46" style="font-family: 'Arial Narrow'; font-size: 14px; fill: rgb(68, 68, 68); fill-opacity: 1; white-space: pre;">WisDOT</text><g class="layers" style="opacity: 0.8;"><g class="legendfill"/><g class="legendlines"><path class="js-line" d="M5,0h30" style="fill: none; stroke: rgb(141, 160, 203); stroke-opacity: 1; stroke-width: 3px;"/></g><g class="legendsymbols"><g class="legendpoints"><path class="scatterpts" transform="translate(20,0)" d="M8,0A8,8 0 1,1 0,-8A8,8 0 0,1 8,0Z" style="opacity: 1; stroke-width: 2px; fill: rgb(141, 160, 203); fill-opacity: 1; stroke: rgb(211, 211, 211); stroke-opacity: 1;"/></g></g></g><rect class="legendtoggle" x="0" y="-10.6" width="83.375" height="21.2" style="fill: rgb(0, 0, 0); fill-opacity: 0;"/></g></g></g><rect class="scrollbar" rx="20" ry="3" width="0" height="0" style="fill: rgb(128, 139, 164); fill-opacity: 1;" x="0" y="0"/></g><g class="g-gtitle"/><g class="g-xtitle" transform="translate(0,-20)"><text class="xtitle" x="419" y="466" text-anchor="middle" style="font-family: 'Arial Narrow'; font-size: 20px; fill: rgb(68, 68, 68); opacity: 1; font-weight: normal; white-space: pre;">Year</text></g><g class="g-ytitle" transform="translate(11.5,0)"><text class="ytitle" transform="rotate(-90,7,238)" x="7" y="238" text-anchor="middle" style="font-family: 'Arial Narrow'; font-size: 20px; fill: rgb(68, 68, 68); opacity: 1; font-weight: normal; white-space: pre;">VMT</text></g><g class="annotation" data-index="0" style="opacity: 1;"><g class="annotation-text-g" transform="rotate(0,59,56.71999999999998)"><g class="cursor-pointer" transform="translate(57,55)"><rect class="bg" x="0.5" y="0.5" width="3" height="3" style="stroke-width: 1px; stroke: rgb(0, 0, 0); stroke-opacity: 0; fill: rgb(0, 0, 0); fill-opacity: 0;"/><text class="annotation-text" text-anchor="start" x="2" y="2" style="font-family: 'Arial Narrow'; font-size: 16px; fill: rgb(68, 68, 68); fill-opacity: 1; white-space: pre;"></text></g></g></g></g></svg>