<svg class="main-svg" xmlns="http://www.w3.org/2000/svg" xmlns:xlink="http://www.w3.org/1999/xlink" width="1800" height="900" style="" viewBox="0 0 900 450"><rect x="0" y="0" width="900" height="450" style="fill: rgb(255, 255, 255); fill-opacity: 1;"/><defs id="defs-8e2cff"><g class="clips"><clipPath id="clip8e2cffxyplot" class="plotclip"><rect width="800" height="296"/></clipPath><clipPath class="axesclip" id="clip8e2cffx"><rect x="50" y="0" width="800" height="450"/></clipPath><clipPath class="axesclip" id="clip8e2cffy"><rect x="0" y="80" width="900" height="296"/></clipPath><clipPath class="axesclip" id="clip8e2cffxy"><rect x="50" y="80" width="800" height="296"/></clipPath></g><g class="gradients"/><g class="patterns"/></defs><g class="bglayer"/><g class="layer-below"><g class="imagelayer"/><g class="shapelayer"/></g><g class="cartesianlayer"><g class="subplot xy"><g class="layer-subplot"><g class="shapelayer"/><g class="imagelayer"/></g><g class="gridlayer"><g class="x"><path class="xgrid crisp" transform="translate(183.38,0)" d="M0,80v296" style="stroke: rgb(238, 238, 238); stroke-opacity: 1; stroke-width: 1px;"/><path class="xgrid crisp" transform="translate(304.59000000000003,0)" d="M0,80v296" style="stroke: rgb(238, 238, 238); stroke-opacity: 1; stroke-width: 1px;"/><path class="xgrid crisp" transform="translate(425.79,0)" d="M0,80v296" style="stroke: rgb(238, 238, 238); stroke-opacity: 1; stroke-width: 1px;"/><path class="xgrid crisp" transform="translate(546.99,0)" d="M0,80v296" style="stroke: rgb(238, 238, 238); stroke-opacity: 1; stroke-width: 1px;"/><path class="xgrid crisp" transform="translate(668.2,0)" d="M0,80v296" style="stroke: rgb(238, 238, 238); stroke-opacity: 1; stroke-width: 1px;"/><path class="xgrid crisp" transform="translate(789.4,0)" d="M0,80v296" style="stroke: rgb(238, 238, 238); stroke-opacity: 1; stroke-width: 1px;"/></g><g class="y"><path class="ygrid crisp" transform="translate(0,320.22)" d="M50,0h800" style="stroke: rgb(238, 238, 238); stroke-opacity: 1; stroke-width: 1px;"/><path class="ygrid crisp" transform="translate(0,279.23)" d="M50,0h800" style="stroke: rgb(238, 238, 238); stroke-opacity: 1; stroke-width: 1px;"/><path class="ygrid crisp" transform="translate(0,238.25)" d="M50,0h800" style="stroke: rgb(238, 238, 238); stroke-opacity: 1; stroke-width: 1px;"/><path class="ygrid crisp" transform="translate(0,197.26)" d="M50,0h800" style="stroke: rgb(238, 238, 238); stroke-opacity: 1; stroke-width: 1px;"/><path class="ygrid crisp" transform="translate(0,156.28)" d="M50,0h800" style="stroke: rgb(238, 238, 238); stroke-opacity: 1; stroke-width: 1px;"/><path class="ygrid crisp" transform="translate(0,115.28999999999999)" d="M50,0h800" style="stroke: rgb(238, 238, 238); stroke-opacity: 1; stroke-width: 1px;"/></g></g><g class="zerolinelayer"><path class="xzl zl crisp" transform="translate(62.18,0)" d="M0,80v296" style="stroke: rgb(68, 68, 68); stroke-opacity: 1; stroke-width: 1px;"/><path class="yzl zl crisp" transform="translate(0,361.2)" d="M50,0h800" style="stroke: rgb(68, 68, 68); stroke-opacity: 1; stroke-width: 1px;"/></g><path class="xlines-below"/><path class="ylines-below"/><g class="overlines-below"/><g class="xaxislayer-below"/><g class="yaxislayer-below"/><g class="overaxes-below"/><g class="plot" transform="translate(50,80)" clip-path="url(#clip8e2cffxyplot)"><g class="scatterlayer mlayer"><g class="trace scatter trace2a0c15" style="stroke-miterlimit: 2; opacity: 0.75;"><g class="fills"/><g class="errorbars"/><g class="lines"/><g class="points"><path class="point" transform="translate(342.99,179.15)" d="M9,0A9,9 0 1,1 0,-9A9,9 0 0,1 9,0Z" style="opacity: 1; stroke-width: 2px; fill: rgb(100, 57, 103); fill-opacity: 1; stroke: rgb(211, 211, 211); stroke-opacity: 1;"/><path class="point" transform="translate(345.34,129.15)" d="M9,0A9,9 0 1,1 0,-9A9,9 0 0,1 9,0Z" style="opacity: 1; stroke-width: 2px; fill: rgb(100, 57, 103); fill-opacity: 1; stroke: rgb(211, 211, 211); stroke-opacity: 1;"/><path class="point" transform="translate(157.24,211.12)" d="M9,0A9,9 0 1,1 0,-9A9,9 0 0,1 9,0Z" style="opacity: 1; stroke-width: 2px; fill: rgb(100, 57, 103); fill-opacity: 1; stroke: rgb(211, 211, 211); stroke-opacity: 1;"/><path class="point" transform="translate(132.06,220.13)" d="M9,0A9,9 0 1,1 0,-9A9,9 0 0,1 9,0Z" style="opacity: 1; stroke-width: 2px; fill: rgb(100, 57, 103); fill-opacity: 1; stroke: rgb(211, 211, 211); stroke-opacity: 1;"/><path class="point" transform="translate(417.91,102.1)" d="M9,0A9,9 0 1,1 0,-9A9,9 0 0,1 9,0Z" style="opacity: 1; stroke-width: 2px; fill: rgb(100, 57, 103); fill-opacity: 1; stroke: rgb(211, 211, 211); stroke-opacity: 1;"/><path class="point" transform="translate(188.07,201.69)" d="M9,0A9,9 0 1,1 0,-9A9,9 0 0,1 9,0Z" style="opacity: 1; stroke-width: 2px; fill: rgb(100, 57, 103); fill-opacity: 1; stroke: rgb(211, 211, 211); stroke-opacity: 1;"/><path class="point" transform="translate(281.22,203.74)" d="M9,0A9,9 0 1,1 0,-9A9,9 0 0,1 9,0Z" style="opacity: 1; stroke-width: 2px; fill: rgb(100, 57, 103); fill-opacity: 1; stroke: rgb(211, 211, 211); stroke-opacity: 1;"/><path class="point" transform="translate(430.5,151.69)" d="M9,0A9,9 0 1,1 0,-9A9,9 0 0,1 9,0Z" style="opacity: 1; stroke-width: 2px; fill: rgb(100, 57, 103); fill-opacity: 1; stroke: rgb(211, 211, 211); stroke-opacity: 1;"/><path class="point" transform="translate(160.75,218.9)" d="M9,0A9,9 0 1,1 0,-9A9,9 0 0,1 9,0Z" style="opacity: 1; stroke-width: 2px; fill: rgb(100, 57, 103); fill-opacity: 1; stroke: rgb(211, 211, 211); stroke-opacity: 1;"/><path class="point" transform="translate(388.45,125.46)" d="M9,0A9,9 0 1,1 0,-9A9,9 0 0,1 9,0Z" style="opacity: 1; stroke-width: 2px; fill: rgb(100, 57, 103); fill-opacity: 1; stroke: rgb(211, 211, 211); stroke-opacity: 1;"/><path class="point" transform="translate(94.47,213.58)" d="M9,0A9,9 0 1,1 0,-9A9,9 0 0,1 9,0Z" style="opacity: 1; stroke-width: 2px; fill: rgb(100, 57, 103); fill-opacity: 1; stroke: rgb(211, 211, 211); stroke-opacity: 1;"/><path class="point" transform="translate(488.68,89.8)" d="M9,0A9,9 0 1,1 0,-9A9,9 0 0,1 9,0Z" style="opacity: 1; stroke-width: 2px; fill: rgb(100, 57, 103); fill-opacity: 1; stroke: rgb(211, 211, 211); stroke-opacity: 1;"/><path class="point" transform="translate(225.6,178.74)" d="M9,0A9,9 0 1,1 0,-9A9,9 0 0,1 9,0Z" style="opacity: 1; stroke-width: 2px; fill: rgb(100, 57, 103); fill-opacity: 1; stroke: rgb(211, 211, 211); stroke-opacity: 1;"/><path class="point" transform="translate(577.18,56.19)" d="M9,0A9,9 0 1,1 0,-9A9,9 0 0,1 9,0Z" style="opacity: 1; stroke-width: 2px; fill: rgb(100, 57, 103); fill-opacity: 1; stroke: rgb(211, 211, 211); stroke-opacity: 1;"/><path class="point" transform="translate(617.25,82.42)" d="M9,0A9,9 0 1,1 0,-9A9,9 0 0,1 9,0Z" style="opacity: 1; stroke-width: 2px; fill: rgb(100, 57, 103); fill-opacity: 1; stroke: rgb(211, 211, 211); stroke-opacity: 1;"/><path class="point" transform="translate(416.98,134.07)" d="M9,0A9,9 0 1,1 0,-9A9,9 0 0,1 9,0Z" style="opacity: 1; stroke-width: 2px; fill: rgb(100, 57, 103); fill-opacity: 1; stroke: rgb(211, 211, 211); stroke-opacity: 1;"/><path class="point" transform="translate(168.24,217.26)" d="M9,0A9,9 0 1,1 0,-9A9,9 0 0,1 9,0Z" style="opacity: 1; stroke-width: 2px; fill: rgb(100, 57, 103); fill-opacity: 1; stroke: rgb(211, 211, 211); stroke-opacity: 1;"/><path class="point" transform="translate(317.99,127.92)" d="M9,0A9,9 0 1,1 0,-9A9,9 0 0,1 9,0Z" style="opacity: 1; stroke-width: 2px; fill: rgb(100, 57, 103); fill-opacity: 1; stroke: rgb(211, 211, 211); stroke-opacity: 1;"/><path class="point" transform="translate(367.96,147.18)" d="M9,0A9,9 0 1,1 0,-9A9,9 0 0,1 9,0Z" style="opacity: 1; stroke-width: 2px; fill: rgb(100, 57, 103); fill-opacity: 1; stroke: rgb(211, 211, 211); stroke-opacity: 1;"/><path class="point" transform="translate(559.79,54.56)" d="M9,0A9,9 0 1,1 0,-9A9,9 0 0,1 9,0Z" style="opacity: 1; stroke-width: 2px; fill: rgb(100, 57, 103); fill-opacity: 1; stroke: rgb(211, 211, 211); stroke-opacity: 1;"/><path class="point" transform="translate(185.65,202.51)" d="M9,0A9,9 0 1,1 0,-9A9,9 0 0,1 9,0Z" style="opacity: 1; stroke-width: 2px; fill: rgb(100, 57, 103); fill-opacity: 1; stroke: rgb(211, 211, 211); stroke-opacity: 1;"/><path class="point" transform="translate(127.14,217.26)" d="M9,0A9,9 0 1,1 0,-9A9,9 0 0,1 9,0Z" style="opacity: 1; stroke-width: 2px; fill: rgb(100, 57, 103); fill-opacity: 1; stroke: rgb(211, 211, 211); stroke-opacity: 1;"/><path class="point" transform="translate(120.64,225.87)" d="M9,0A9,9 0 1,1 0,-9A9,9 0 0,1 9,0Z" style="opacity: 1; stroke-width: 2px; fill: rgb(100, 57, 103); fill-opacity: 1; stroke: rgb(211, 211, 211); stroke-opacity: 1;"/><path class="point" transform="translate(196.11,207.43)" d="M9,0A9,9 0 1,1 0,-9A9,9 0 0,1 9,0Z" style="opacity: 1; stroke-width: 2px; fill: rgb(100, 57, 103); fill-opacity: 1; stroke: rgb(211, 211, 211); stroke-opacity: 1;"/><path class="point" transform="translate(158.93,211.12)" d="M9,0A9,9 0 1,1 0,-9A9,9 0 0,1 9,0Z" style="opacity: 1; stroke-width: 2px; fill: rgb(100, 57, 103); fill-opacity: 1; stroke: rgb(211, 211, 211); stroke-opacity: 1;"/><path class="point" transform="translate(158.1,219.31)" d="M9,0A9,9 0 1,1 0,-9A9,9 0 0,1 9,0Z" style="opacity: 1; stroke-width: 2px; fill: rgb(100, 57, 103); fill-opacity: 1; stroke: rgb(211, 211, 211); stroke-opacity: 1;"/><path class="point" transform="translate(657.6,80.79)" d="M9,0A9,9 0 1,1 0,-9A9,9 0 0,1 9,0Z" style="opacity: 1; stroke-width: 2px; fill: rgb(100, 57, 103); fill-opacity: 1; stroke: rgb(211, 211, 211); stroke-opacity: 1;"/><path class="point" transform="translate(189.84,203.33)" d="M9,0A9,9 0 1,1 0,-9A9,9 0 0,1 9,0Z" style="opacity: 1; stroke-width: 2px; fill: rgb(100, 57, 103); fill-opacity: 1; stroke: rgb(211, 211, 211); stroke-opacity: 1;"/><path class="point" transform="translate(149.14,216.03)" d="M9,0A9,9 0 1,1 0,-9A9,9 0 0,1 9,0Z" style="opacity: 1; stroke-width: 2px; fill: rgb(100, 57, 103); fill-opacity: 1; stroke: rgb(211, 211, 211); stroke-opacity: 1;"/><path class="point" transform="translate(142.65,195.95)" d="M9,0A9,9 0 1,1 0,-9A9,9 0 0,1 9,0Z" style="opacity: 1; stroke-width: 2px; fill: rgb(100, 57, 103); fill-opacity: 1; stroke: rgb(211, 211, 211); stroke-opacity: 1;"/><path class="point" transform="translate(347.14,164.8)" d="M9,0A9,9 0 1,1 0,-9A9,9 0 0,1 9,0Z" style="opacity: 1; stroke-width: 2px; fill: rgb(100, 57, 103); fill-opacity: 1; stroke: rgb(211, 211, 211); stroke-opacity: 1;"/><path class="point" transform="translate(260.22,164.39)" d="M9,0A9,9 0 1,1 0,-9A9,9 0 0,1 9,0Z" style="opacity: 1; stroke-width: 2px; fill: rgb(100, 57, 103); fill-opacity: 1; stroke: rgb(211, 211, 211); stroke-opacity: 1;"/><path class="point" transform="translate(140.36,220.54)" d="M9,0A9,9 0 1,1 0,-9A9,9 0 0,1 9,0Z" style="opacity: 1; stroke-width: 2px; fill: rgb(100, 57, 103); fill-opacity: 1; stroke: rgb(211, 211, 211); stroke-opacity: 1;"/><path class="point" transform="translate(445.08,125.05)" d="M9,0A9,9 0 1,1 0,-9A9,9 0 0,1 9,0Z" style="opacity: 1; stroke-width: 2px; fill: rgb(100, 57, 103); fill-opacity: 1; stroke: rgb(211, 211, 211); stroke-opacity: 1;"/><path class="point" transform="translate(503.8,134.88)" d="M9,0A9,9 0 1,1 0,-9A9,9 0 0,1 9,0Z" style="opacity: 1; stroke-width: 2px; fill: rgb(100, 57, 103); fill-opacity: 1; stroke: rgb(211, 211, 211); stroke-opacity: 1;"/><path class="point" transform="translate(133.26,216.85)" d="M9,0A9,9 0 1,1 0,-9A9,9 0 0,1 9,0Z" style="opacity: 1; stroke-width: 2px; fill: rgb(100, 57, 103); fill-opacity: 1; stroke: rgb(211, 211, 211); stroke-opacity: 1;"/><path class="point" transform="translate(147.95,216.03)" d="M9,0A9,9 0 1,1 0,-9A9,9 0 0,1 9,0Z" style="opacity: 1; stroke-width: 2px; fill: rgb(100, 57, 103); fill-opacity: 1; stroke: rgb(211, 211, 211); stroke-opacity: 1;"/><path class="point" transform="translate(368.04,138.57)" d="M9,0A9,9 0 1,1 0,-9A9,9 0 0,1 9,0Z" style="opacity: 1; stroke-width: 2px; fill: rgb(100, 57, 103); fill-opacity: 1; stroke: rgb(211, 211, 211); stroke-opacity: 1;"/><path class="point" transform="translate(571.93,99.64)" d="M9,0A9,9 0 1,1 0,-9A9,9 0 0,1 9,0Z" style="opacity: 1; stroke-width: 2px; fill: rgb(100, 57, 103); fill-opacity: 1; stroke: rgb(211, 211, 211); stroke-opacity: 1;"/><path class="point" transform="translate(157.39,229.56)" d="M9,0A9,9 0 1,1 0,-9A9,9 0 0,1 9,0Z" style="opacity: 1; stroke-width: 2px; fill: rgb(100, 57, 103); fill-opacity: 1; stroke: rgb(211, 211, 211); stroke-opacity: 1;"/><path class="point" transform="translate(467.18,101.69)" d="M9,0A9,9 0 1,1 0,-9A9,9 0 0,1 9,0Z" style="opacity: 1; stroke-width: 2px; fill: rgb(100, 57, 103); fill-opacity: 1; stroke: rgb(211, 211, 211); stroke-opacity: 1;"/><path class="point" transform="translate(111.14,207.02)" d="M9,0A9,9 0 1,1 0,-9A9,9 0 0,1 9,0Z" style="opacity: 1; stroke-width: 2px; fill: rgb(100, 57, 103); fill-opacity: 1; stroke: rgb(211, 211, 211); stroke-opacity: 1;"/><path class="point" transform="translate(107.71,224.64)" d="M9,0A9,9 0 1,1 0,-9A9,9 0 0,1 9,0Z" style="opacity: 1; stroke-width: 2px; fill: rgb(100, 57, 103); fill-opacity: 1; stroke: rgb(211, 211, 211); stroke-opacity: 1;"/><path class="point" transform="translate(169.13,195.13)" d="M9,0A9,9 0 1,1 0,-9A9,9 0 0,1 9,0Z" style="opacity: 1; stroke-width: 2px; fill: rgb(100, 57, 103); fill-opacity: 1; stroke: rgb(211, 211, 211); stroke-opacity: 1;"/><path class="point" transform="translate(377.73,138.16)" d="M9,0A9,9 0 1,1 0,-9A9,9 0 0,1 9,0Z" style="opacity: 1; stroke-width: 2px; fill: rgb(100, 57, 103); fill-opacity: 1; stroke: rgb(211, 211, 211); stroke-opacity: 1;"/><path class="point" transform="translate(184.37,201.28)" d="M9,0A9,9 0 1,1 0,-9A9,9 0 0,1 9,0Z" style="opacity: 1; stroke-width: 2px; fill: rgb(100, 57, 103); fill-opacity: 1; stroke: rgb(211, 211, 211); stroke-opacity: 1;"/><path class="point" transform="translate(352.11,162.34)" d="M9,0A9,9 0 1,1 0,-9A9,9 0 0,1 9,0Z" style="opacity: 1; stroke-width: 2px; fill: rgb(100, 57, 103); fill-opacity: 1; stroke: rgb(211, 211, 211); stroke-opacity: 1;"/><path class="point" transform="translate(497.55,98.41)" d="M9,0A9,9 0 1,1 0,-9A9,9 0 0,1 9,0Z" style="opacity: 1; stroke-width: 2px; fill: rgb(100, 57, 103); fill-opacity: 1; stroke: rgb(211, 211, 211); stroke-opacity: 1;"/><path class="point" transform="translate(273.38,203.74)" d="M9,0A9,9 0 1,1 0,-9A9,9 0 0,1 9,0Z" style="opacity: 1; stroke-width: 2px; fill: rgb(100, 57, 103); fill-opacity: 1; stroke: rgb(211, 211, 211); stroke-opacity: 1;"/><path class="point" transform="translate(683.96,87.34)" d="M9,0A9,9 0 1,1 0,-9A9,9 0 0,1 9,0Z" style="opacity: 1; stroke-width: 2px; fill: rgb(100, 57, 103); fill-opacity: 1; stroke: rgb(211, 211, 211); stroke-opacity: 1;"/><path class="point" transform="translate(146.85,218.9)" d="M9,0A9,9 0 1,1 0,-9A9,9 0 0,1 9,0Z" style="opacity: 1; stroke-width: 2px; fill: rgb(100, 57, 103); fill-opacity: 1; stroke: rgb(211, 211, 211); stroke-opacity: 1;"/><path class="point" transform="translate(203.75,205.79)" d="M9,0A9,9 0 1,1 0,-9A9,9 0 0,1 9,0Z" style="opacity: 1; stroke-width: 2px; fill: rgb(100, 57, 103); fill-opacity: 1; stroke: rgb(211, 211, 211); stroke-opacity: 1;"/><path class="point" transform="translate(268.75,164.39)" d="M9,0A9,9 0 1,1 0,-9A9,9 0 0,1 9,0Z" style="opacity: 1; stroke-width: 2px; fill: rgb(100, 57, 103); fill-opacity: 1; stroke: rgb(211, 211, 211); stroke-opacity: 1;"/><path class="point" transform="translate(124.39,229.56)" d="M9,0A9,9 0 1,1 0,-9A9,9 0 0,1 9,0Z" style="opacity: 1; stroke-width: 2px; fill: rgb(100, 57, 103); fill-opacity: 1; stroke: rgb(211, 211, 211); stroke-opacity: 1;"/></g><g class="text"/></g><g class="trace scatter tracefd2c71" style="stroke-miterlimit: 2; opacity: 0.75;"><g class="fills"/><g class="errorbars"/><g class="lines"/><g class="points"><path class="point" transform="translate(54.83,254.15)" d="M9,0A9,9 0 1,1 0,-9A9,9 0 0,1 9,0Z" style="opacity: 1; stroke-width: 2px; fill: rgb(0, 84, 164); fill-opacity: 1; stroke: rgb(211, 211, 211); stroke-opacity: 1;"/><path class="point" transform="translate(115.93,254.97)" d="M9,0A9,9 0 1,1 0,-9A9,9 0 0,1 9,0Z" style="opacity: 1; stroke-width: 2px; fill: rgb(0, 84, 164); fill-opacity: 1; stroke: rgb(211, 211, 211); stroke-opacity: 1;"/><path class="point" transform="translate(106.92,250.87)" d="M9,0A9,9 0 1,1 0,-9A9,9 0 0,1 9,0Z" style="opacity: 1; stroke-width: 2px; fill: rgb(0, 84, 164); fill-opacity: 1; stroke: rgb(211, 211, 211); stroke-opacity: 1;"/><path class="point" transform="translate(51.25,255.79)" d="M9,0A9,9 0 1,1 0,-9A9,9 0 0,1 9,0Z" style="opacity: 1; stroke-width: 2px; fill: rgb(0, 84, 164); fill-opacity: 1; stroke: rgb(211, 211, 211); stroke-opacity: 1;"/><path class="point" transform="translate(63.78,251.69)" d="M9,0A9,9 0 1,1 0,-9A9,9 0 0,1 9,0Z" style="opacity: 1; stroke-width: 2px; fill: rgb(0, 84, 164); fill-opacity: 1; stroke: rgb(211, 211, 211); stroke-opacity: 1;"/><path class="point" transform="translate(52.61,258.25)" d="M9,0A9,9 0 1,1 0,-9A9,9 0 0,1 9,0Z" style="opacity: 1; stroke-width: 2px; fill: rgb(0, 84, 164); fill-opacity: 1; stroke: rgb(211, 211, 211); stroke-opacity: 1;"/><path class="point" transform="translate(68.84,254.56)" d="M9,0A9,9 0 1,1 0,-9A9,9 0 0,1 9,0Z" style="opacity: 1; stroke-width: 2px; fill: rgb(0, 84, 164); fill-opacity: 1; stroke: rgb(211, 211, 211); stroke-opacity: 1;"/><path class="point" transform="translate(298.63,252.51)" d="M9,0A9,9 0 1,1 0,-9A9,9 0 0,1 9,0Z" style="opacity: 1; stroke-width: 2px; fill: rgb(0, 84, 164); fill-opacity: 1; stroke: rgb(211, 211, 211); stroke-opacity: 1;"/><path class="point" transform="translate(53.88,255.79)" d="M9,0A9,9 0 1,1 0,-9A9,9 0 0,1 9,0Z" style="opacity: 1; stroke-width: 2px; fill: rgb(0, 84, 164); fill-opacity: 1; stroke: rgb(211, 211, 211); stroke-opacity: 1;"/></g><g class="text"/></g><g class="trace scatter tracec66aba" style="stroke-miterlimit: 2; opacity: 1;"><g class="fills"/><g class="errorbars"/><g class="lines"><path class="js-line" d="M12.18,281.2L800,14.8" style="vector-effect: non-scaling-stroke; fill: none; stroke: rgb(128, 128, 128); stroke-opacity: 1; stroke-width: 2px; opacity: 1;"/></g><g class="points"/><g class="text"/></g></g></g><g class="overplot"/><path class="xlines-above crisp" d="M0,0" style="fill: none;"/><path class="ylines-above crisp" d="M0,0" style="fill: none;"/><g class="overlines-above"/><g class="xaxislayer-above"><g class="xtick"><text text-anchor="middle" x="0" y="394" transform="translate(62.18,0)" style="font-family: 'Arial Narrow'; font-size: 16px; fill: rgb(68, 68, 68); fill-opacity: 1; white-space: pre; opacity: 1;">0</text></g><g class="xtick"><text text-anchor="middle" x="0" y="394" style="font-family: 'Arial Narrow'; font-size: 16px; fill: rgb(68, 68, 68); fill-opacity: 1; white-space: pre; opacity: 1;" transform="translate(183.38,0)">10</text></g><g class="xtick"><text text-anchor="middle" x="0" y="394" style="font-family: 'Arial Narrow'; font-size: 16px; fill: rgb(68, 68, 68); fill-opacity: 1; white-space: pre; opacity: 1;" transform="translate(304.59000000000003,0)">20</text></g><g class="xtick"><text text-anchor="middle" x="0" y="394" style="font-family: 'Arial Narrow'; font-size: 16px; fill: rgb(68, 68, 68); fill-opacity: 1; white-space: pre; opacity: 1;" transform="translate(425.79,0)">30</text></g><g class="xtick"><text text-anchor="middle" x="0" y="394" style="font-family: 'Arial Narrow'; font-size: 16px; fill: rgb(68, 68, 68); fill-opacity: 1; white-space: pre; opacity: 1;" transform="translate(546.99,0)">40</text></g><g class="xtick"><text text-anchor="middle" x="0" y="394" style="font-family: 'Arial Narrow'; font-size: 16px; fill: rgb(68, 68, 68); fill-opacity: 1; white-space: pre; opacity: 1;" transform="translate(668.2,0)">50</text></g><g class="xtick"><text text-anchor="middle" x="0" y="394" style="font-family: 'Arial Narrow'; font-size: 16px; fill: rgb(68, 68, 68); fill-opacity: 1; white-space: pre; opacity: 1;" transform="translate(789.4,0)">60</text></g></g><g class="yaxislayer-above"><g class="ytick"><text text-anchor="end" x="48" y="5.6" transform="translate(0,361.2)" style="font-family: 'Arial Narrow'; font-size: 16px; fill: rgb(68, 68, 68); fill-opacity: 1; white-space: pre; opacity: 1;">0</text></g><g class="ytick"><text text-anchor="end" x="48" y="5.6" style="font-family: 'Arial Narrow'; font-size: 16px; fill: rgb(68, 68, 68); fill-opacity: 1; white-space: pre; opacity: 1;" transform="translate(0,320.22)">10</text></g><g class="ytick"><text text-anchor="end" x="48" y="5.6" style="font-family: 'Arial Narrow'; font-size: 16px; fill: rgb(68, 68, 68); fill-opacity: 1; white-space: pre; opacity: 1;" transform="translate(0,279.23)">20</text></g><g class="ytick"><text text-anchor="end" x="48" y="5.6" style="font-family: 'Arial Narrow'; font-size: 16px; fill: rgb(68, 68, 68); fill-opacity: 1; white-space: pre; opacity: 1;" transform="translate(0,238.25)">30</text></g><g class="ytick"><text text-anchor="end" x="48" y="5.6" style="font-family: 'Arial Narrow'; font-size: 16px; fill: rgb(68, 68, 68); fill-opacity: 1; white-space: pre; opacity: 1;" transform="translate(0,197.26)">40</text></g><g class="ytick"><text text-anchor="end" x="48" y="5.6" style="font-family: 'Arial Narrow'; font-size: 16px; fill: rgb(68, 68, 68); fill-opacity: 1; white-space: pre; opacity: 1;" transform="translate(0,156.28)">50</text></g><g class="ytick"><text text-anchor="end" x="48" y="5.6" style="font-family: 'Arial Narrow'; font-size: 16px; fill: rgb(68, 68, 68); fill-opacity: 1; white-space: pre; opacity: 1;" transform="translate(0,115.28999999999999)">60</text></g></g><g class="overaxes-above"/></g></g><g class="polarlayer"/><g class="smithlayer"/><g class="ternarylayer"/><g class="geolayer"/><g class="funnelarealayer"/><g class="pielayer"/><g class="iciclelayer"/><g class="treemaplayer"/><g class="sunburstlayer"/><g class="glimages"/><defs id="topdefs-8e2cff"><g class="clips"/><clipPath id="legend8e2cff"><rect width="356" height="32" x="0" y="0"/></clipPath></defs><g class="layer-above"><g class="imagelayer"/><g class="shapelayer"/></g><g class="infolayer"><g class="legend" pointer-events="all" transform="translate(50,405.6)"><rect class="bg" shape-rendering="crispEdges" style="stroke: rgb(68, 68, 68); stroke-opacity: 1; fill: rgb(255, 255, 255); fill-opacity: 1; stroke-width: 0px;" width="356" height="32" x="0" y="0"/><g class="scrollbox" transform="" clip-path="url(#legend8e2cff)"><g class="groups"><g class="traces" transform="translate(0,15.6)" style="opacity: 1;"><text class="legendtext" text-anchor="start" x="40" y="5.46" style="font-family: 'Arial Narrow'; font-size: 14px; fill: rgb(68, 68, 68); fill-opacity: 1; white-space: pre;">Different county</text><g class="layers" style="opacity: 0.75;"><g class="legendfill"/><g class="legendlines"/><g class="legendsymbols"><g class="legendpoints"><path class="scatterpts" transform="translate(20,0)" d="M8,0A8,8 0 1,1 0,-8A8,8 0 0,1 8,0Z" style="opacity: 1; stroke-width: 2px; fill: rgb(100, 57, 103); fill-opacity: 1; stroke: rgb(211, 211, 211); stroke-opacity: 1;"/></g></g></g><rect class="legendtoggle" x="0" y="-10.6" width="122.71875" height="21.2" style="fill: rgb(0, 0, 0); fill-opacity: 0;"/></g><g class="traces" transform="translate(125.21875,15.6)" style="opacity: 1;"><text class="legendtext" text-anchor="start" x="40" y="5.46" style="font-family: 'Arial Narrow'; font-size: 14px; fill: rgb(68, 68, 68); fill-opacity: 1; white-space: pre;">Same county</text><g class="layers" style="opacity: 0.75;"><g class="legendfill"/><g class="legendlines"/><g class="legendsymbols"><g class="legendpoints"><path class="scatterpts" transform="translate(20,0)" d="M8,0A8,8 0 1,1 0,-8A8,8 0 0,1 8,0Z" style="opacity: 1; stroke-width: 2px; fill: rgb(0, 84, 164); fill-opacity: 1; stroke: rgb(211, 211, 211); stroke-opacity: 1;"/></g></g></g><rect class="legendtoggle" x="0" y="-10.6" width="109.515625" height="21.2" style="fill: rgb(0, 0, 0); fill-opacity: 0;"/></g><g class="traces" transform="translate(237.234375,15.6)" style="opacity: 1;"><text class="legendtext" text-anchor="start" x="40" y="5.46" style="font-family: 'Arial Narrow'; font-size: 14px; fill: rgb(68, 68, 68); fill-opacity: 1; white-space: pre;">1-1 correlation</text><g class="layers" style="opacity: 1;"><g class="legendfill"/><g class="legendlines"><path class="js-line" d="M5,0h30" style="fill: none; stroke: rgb(128, 128, 128); stroke-opacity: 1; stroke-width: 2px;"/></g><g class="legendsymbols"><g class="legendpoints"/></g></g><rect class="legendtoggle" x="0" y="-10.6" width="115.890625" height="21.2" style="fill: rgb(0, 0, 0); fill-opacity: 0;"/></g></g></g><rect class="scrollbar" rx="20" ry="3" width="0" height="0" style="fill: rgb(128, 139, 164); fill-opacity: 1;" x="0" y="0"/></g><g class="g-gtitle"/><g class="g-xtitle" transform="translate(0,-0.21875)"><text class="xtitle" x="450" y="446" text-anchor="middle" style="font-family: 'Arial Narrow'; font-size: 20px; fill: rgb(68, 68, 68); opacity: 1; font-weight: normal; white-space: pre;">TBI average trip distance (miles)</text></g><g class="g-ytitle" transform="translate(18.5,0)"><text class="ytitle" transform="rotate(-90,0,228)" x="0" y="228" text-anchor="middle" style="font-family: 'Arial Narrow'; font-size: 20px; fill: rgb(68, 68, 68); opacity: 1; font-weight: normal; white-space: pre;">StL average trip distance (miles)</text></g><g class="annotation" data-index="0" style="opacity: 1;"><g class="annotation-text-g" transform="rotate(0,52,58.31999999999998)"><g class="cursor-pointer" transform="translate(50,56)"><rect class="bg" x="0.5" y="0.5" width="3" height="3" style="stroke-width: 1px; stroke: rgb(0, 0, 0); stroke-opacity: 0; fill: rgb(0, 0, 0); fill-opacity: 0;"/><text class="annotation-text" text-anchor="start" x="2" y="2" style="font-family: 'Arial Narrow'; font-size: 16px; fill: rgb(68, 68, 68); fill-opacity: 1; white-space: pre;"></text></g></g></g></g></svg>